<svg width="360" height="800" viewBox="0 0 360 800" fill="none" xmlns="http://www.w3.org/2000/svg">
<g clip-path="url(#clip0_4_2)">
<rect width="360" height="800" fill="#FFFCED"/>
<path d="M341.25 14.5V17H342.5V19.5H341.25V22H322.5V14.5H341.25ZM341.875 12H321.875C320.839 12 320 12.8395 320 13.875V22.625C320 23.6605 320.839 24.5 321.875 24.5H341.875C342.911 24.5 343.75 23.6605 343.75 22.625V22H344.062C344.58 22 345 21.5803 345 21.0625V15.4375C345 14.9197 344.58 14.5 344.062 14.5H343.75V13.875C343.75 12.8395 342.911 12 341.875 12ZM332.5 15.75H323.75V20.75H332.5V15.75Z" fill="black"/>
<path d="M275.546 22.082C275.863 21.83 276.008 21.7133 275.98 21.732C276.895 20.976 277.613 20.3553 278.136 19.87C278.668 19.3847 279.116 18.876 279.48 18.344C279.844 17.812 280.026 17.294 280.026 16.79C280.026 16.4073 279.937 16.1087 279.76 15.894C279.583 15.6793 279.317 15.572 278.962 15.572C278.607 15.572 278.327 15.7073 278.122 15.978C277.926 16.2393 277.828 16.6127 277.828 17.098H275.518C275.537 16.3047 275.705 15.642 276.022 15.11C276.349 14.578 276.773 14.186 277.296 13.934C277.828 13.682 278.416 13.556 279.06 13.556C280.171 13.556 281.006 13.8407 281.566 14.41C282.135 14.9793 282.42 15.7213 282.42 16.636C282.42 17.6347 282.079 18.5633 281.398 19.422C280.717 20.2713 279.849 21.102 278.794 21.914H282.574V23.86H275.546V22.082ZM283.712 16.664C283.749 15.6653 284.076 14.8953 284.692 14.354C285.308 13.8127 286.143 13.542 287.198 13.542C287.898 13.542 288.495 13.6633 288.99 13.906C289.494 14.1487 289.872 14.48 290.124 14.9C290.385 15.32 290.516 15.7913 290.516 16.314C290.516 16.93 290.362 17.434 290.054 17.826C289.746 18.2087 289.387 18.47 288.976 18.61V18.666C289.508 18.8433 289.928 19.1373 290.236 19.548C290.544 19.9587 290.698 20.486 290.698 21.13C290.698 21.7087 290.563 22.222 290.292 22.67C290.031 23.1087 289.643 23.454 289.13 23.706C288.626 23.958 288.024 24.084 287.324 24.084C286.204 24.084 285.308 23.8087 284.636 23.258C283.973 22.7073 283.623 21.8767 283.586 20.766H285.91C285.919 21.1767 286.036 21.5033 286.26 21.746C286.484 21.9793 286.811 22.096 287.24 22.096C287.604 22.096 287.884 21.9933 288.08 21.788C288.285 21.5733 288.388 21.2933 288.388 20.948C288.388 20.5 288.243 20.178 287.954 19.982C287.674 19.7767 287.221 19.674 286.596 19.674H286.148V17.728H286.596C287.072 17.728 287.455 17.6487 287.744 17.49C288.043 17.322 288.192 17.028 288.192 16.608C288.192 16.272 288.099 16.0107 287.912 15.824C287.725 15.6373 287.469 15.544 287.142 15.544C286.787 15.544 286.521 15.6513 286.344 15.866C286.176 16.0807 286.078 16.3467 286.05 16.664H283.712ZM293.463 24.112C293.043 24.112 292.697 23.9907 292.427 23.748C292.165 23.496 292.035 23.188 292.035 22.824C292.035 22.4507 292.165 22.138 292.427 21.886C292.697 21.634 293.043 21.508 293.463 21.508C293.873 21.508 294.209 21.634 294.471 21.886C294.741 22.138 294.877 22.4507 294.877 22.824C294.877 23.188 294.741 23.496 294.471 23.748C294.209 23.9907 293.873 24.112 293.463 24.112ZM293.463 18.414C293.043 18.414 292.697 18.2927 292.427 18.05C292.165 17.798 292.035 17.49 292.035 17.126C292.035 16.7527 292.165 16.44 292.427 16.188C292.697 15.936 293.043 15.81 293.463 15.81C293.873 15.81 294.209 15.936 294.471 16.188C294.741 16.44 294.877 16.7527 294.877 17.126C294.877 17.49 294.741 17.798 294.471 18.05C294.209 18.2927 293.873 18.414 293.463 18.414ZM296.139 22.18V20.248L300.563 13.92H303.237V20.108H304.385V22.18H303.237V24H300.843V22.18H296.139ZM301.011 16.552L298.659 20.108H301.011V16.552ZM312.754 15.866H308.386V17.798C308.572 17.5927 308.834 17.4247 309.17 17.294C309.506 17.1633 309.87 17.098 310.262 17.098C310.962 17.098 311.54 17.2567 311.998 17.574C312.464 17.8913 312.805 18.302 313.02 18.806C313.234 19.31 313.342 19.856 313.342 20.444C313.342 21.536 313.034 22.404 312.418 23.048C311.802 23.6827 310.934 24 309.814 24C309.067 24 308.418 23.874 307.868 23.622C307.317 23.3607 306.892 23.0013 306.594 22.544C306.295 22.0867 306.132 21.5593 306.104 20.962H308.442C308.498 21.2513 308.633 21.494 308.848 21.69C309.062 21.8767 309.356 21.97 309.73 21.97C310.168 21.97 310.495 21.83 310.71 21.55C310.924 21.27 311.032 20.8967 311.032 20.43C311.032 19.9727 310.92 19.6227 310.696 19.38C310.472 19.1373 310.145 19.016 309.716 19.016C309.398 19.016 309.137 19.0953 308.932 19.254C308.726 19.4033 308.591 19.604 308.526 19.856H306.216V13.766H312.754V15.866Z" fill="black"/>
<circle cy="75" r="75" fill="#88F5EF" fill-opacity="0.65"/>
<circle cx="75" r="75" fill="#88F5EF" fill-opacity="0.65"/>
<path d="M82.768 6.384L80.776 12H79.064L77.072 6.384H78.528L79.92 10.624L81.32 6.384H82.768ZM85.3718 12.064C84.9344 12.064 84.5398 11.9707 84.1878 11.784C83.8411 11.5973 83.5664 11.3307 83.3638 10.984C83.1664 10.6373 83.0678 10.232 83.0678 9.768C83.0678 9.30933 83.1691 8.90667 83.3717 8.56C83.5744 8.208 83.8518 7.93867 84.2038 7.752C84.5558 7.56533 84.9504 7.472 85.3878 7.472C85.8251 7.472 86.2198 7.56533 86.5718 7.752C86.9238 7.93867 87.2011 8.208 87.4038 8.56C87.6064 8.90667 87.7078 9.30933 87.7078 9.768C87.7078 10.2267 87.6038 10.632 87.3958 10.984C87.1931 11.3307 86.9131 11.5973 86.5558 11.784C86.2038 11.9707 85.8091 12.064 85.3718 12.064ZM85.3718 10.88C85.6331 10.88 85.8544 10.784 86.0358 10.592C86.2224 10.4 86.3158 10.1253 86.3158 9.768C86.3158 9.41067 86.2251 9.136 86.0438 8.944C85.8678 8.752 85.6491 8.656 85.3878 8.656C85.1211 8.656 84.8998 8.752 84.7238 8.944C84.5478 9.13067 84.4598 9.40533 84.4598 9.768C84.4598 10.1253 84.5451 10.4 84.7158 10.592C84.8918 10.784 85.1104 10.88 85.3718 10.88ZM78.864 22.944H80.656V24H77.496V18.384H78.864V22.944ZM85.3485 18.384V19.48H83.8605V24H82.4925V19.48H81.0045V18.384H85.3485ZM87.4031 19.48V20.616H89.2351V21.672H87.4031V22.904H89.4751V24H86.0351V18.384H89.4751V19.48H87.4031ZM91.8745 22.904C92.0558 22.76 92.1385 22.6933 92.1225 22.704C92.6452 22.272 93.0558 21.9173 93.3545 21.64C93.6585 21.3627 93.9145 21.072 94.1225 20.768C94.3305 20.464 94.4345 20.168 94.4345 19.88C94.4345 19.6613 94.3838 19.4907 94.2825 19.368C94.1812 19.2453 94.0292 19.184 93.8265 19.184C93.6238 19.184 93.4638 19.2613 93.3465 19.416C93.2345 19.5653 93.1785 19.7787 93.1785 20.056H91.8585C91.8692 19.6027 91.9652 19.224 92.1465 18.92C92.3332 18.616 92.5758 18.392 92.8745 18.248C93.1785 18.104 93.5145 18.032 93.8825 18.032C94.5172 18.032 94.9945 18.1947 95.3145 18.52C95.6398 18.8453 95.8025 19.2693 95.8025 19.792C95.8025 20.3627 95.6078 20.8933 95.2185 21.384C94.8292 21.8693 94.3332 22.344 93.7305 22.808H95.8905V23.92H91.8745V22.904Z" fill="black"/>
<path d="M70.8011 10.8C63.8804 4.39883 53.1168 4.40117 46.1988 10.8C45.9386 11.0406 45.9336 11.448 46.1851 11.6977L47.5226 13.0246C47.7625 13.2629 48.1484 13.268 48.3976 13.0395C54.0976 7.81758 62.9015 7.81641 68.6027 13.0395C68.8519 13.268 69.2379 13.2625 69.4777 13.0246L70.8152 11.6977C71.0664 11.448 71.0613 11.0406 70.8011 10.8ZM58.5 18.5C57.1191 18.5 56 19.6191 56 21C56 22.3809 57.1191 23.5 58.5 23.5C59.8808 23.5 61 22.3809 61 21C61 19.6191 59.8808 18.5 58.5 18.5ZM66.4168 15.2348C61.9144 11.2531 55.0804 11.2574 50.5832 15.2348C50.3136 15.473 50.305 15.8867 50.5609 16.1391L51.9062 17.4668C52.1406 17.698 52.5179 17.7137 52.7675 17.498C56.0468 14.6633 60.9605 14.6695 64.232 17.498C64.4816 17.7137 64.859 17.6984 65.0933 17.4668L66.4386 16.1391C66.6949 15.8867 66.6859 15.4727 66.4168 15.2348Z" fill="black"/>
<path d="M19.0417 14.882C14.9831 11.8381 14.9891 6.90736 19.0417 3.86796C19.2197 3.73441 19.4956 3.71252 19.7061 3.81119L21.7317 4.76072C21.8385 4.81078 21.9184 4.8874 21.9575 4.97718C21.9967 5.06697 21.9925 5.16422 21.9457 5.25192L20.9329 7.15085C20.8897 7.23197 20.8124 7.30034 20.7128 7.34565C20.6132 7.39097 20.4967 7.41077 20.3808 7.40208L18.6367 7.27129C17.9789 8.63679 17.9926 10.1417 18.6367 11.4787L20.3808 11.3479C20.4967 11.3392 20.6133 11.359 20.7129 11.4043C20.8125 11.4496 20.8897 11.518 20.933 11.5991L21.9457 13.4981C21.9925 13.5858 21.9967 13.683 21.9576 13.7728C21.9184 13.8626 21.8385 13.9392 21.7317 13.9893L19.7062 14.9388C19.6032 14.9871 19.4814 15.0077 19.3607 14.9974C19.24 14.9871 19.1276 14.9464 19.0417 14.882ZM23.7227 5.23765C24.0924 5.7075 24.0924 6.29252 23.7227 6.76237C23.5993 6.91924 23.3131 6.94891 23.1378 6.82286L22.951 6.68866C22.8288 6.60082 22.8013 6.46315 22.8804 6.35093C22.9565 6.24277 22.9963 6.12232 22.9963 6.00001C22.9963 5.8777 22.9565 5.75724 22.8804 5.64909C22.8012 5.53687 22.8288 5.3992 22.951 5.31136L23.1378 5.17715C23.3131 5.05111 23.5993 5.08078 23.7227 5.23765ZM26.591 3.10045C28.4704 4.77867 28.4689 7.22268 26.591 8.89954C26.4512 9.0244 26.1995 9.03422 26.0425 8.92141L25.8613 8.79117C25.7188 8.68872 25.7058 8.52096 25.8323 8.40729C27.385 7.01186 27.3837 4.98698 25.8323 3.59271C25.7058 3.47904 25.7188 3.31127 25.8613 3.20883L26.0425 3.07858C26.1995 2.96578 26.4512 2.9756 26.591 3.10045ZM25.1544 4.15376C26.281 5.23943 26.2828 6.75881 25.1544 7.84624C25.0172 7.97845 24.7576 7.99275 24.5964 7.8768L24.4146 7.74604C24.2771 7.64716 24.2584 7.486 24.3744 7.37266C25.2037 6.56257 25.2036 5.43738 24.3744 4.62733C24.2584 4.51399 24.2771 4.35286 24.4146 4.25395L24.5964 4.12319C24.7576 4.00725 25.0172 4.02154 25.1544 4.15376Z" fill="black"/>
<path d="M22.5 17.25H20.625C20.2797 17.25 20 17.5297 20 17.875V25.375C20 25.7203 20.2797 26 20.625 26H22.5C22.8453 26 23.125 25.7203 23.125 25.375V17.875C23.125 17.5297 22.8453 17.25 22.5 17.25ZM17.5 21H15.625C15.2797 21 15 21.2797 15 21.625V25.375C15 25.7203 15.2797 26 15.625 26H17.5C17.8453 26 18.125 25.7203 18.125 25.375V21.625C18.125 21.2797 17.8453 21 17.5 21ZM27.5 13.5H25.625C25.2797 13.5 25 13.7797 25 14.125V25.375C25 25.7203 25.2797 26 25.625 26H27.5C27.8453 26 28.125 25.7203 28.125 25.375V14.125C28.125 13.7797 27.8453 13.5 27.5 13.5ZM32.5 9.75H30.625C30.2797 9.75 30 10.0297 30 10.375V25.375C30 25.7203 30.2797 26 30.625 26H32.5C32.8453 26 33.125 25.7203 33.125 25.375V10.375C33.125 10.0297 32.8453 9.75 32.5 9.75ZM37.5 6H35.625C35.2797 6 35 6.27969 35 6.625V25.375C35 25.7203 35.2797 26 35.625 26H37.5C37.8453 26 38.125 25.7203 38.125 25.375V6.625C38.125 6.27969 37.8453 6 37.5 6Z" fill="black"/>
<rect x="80" y="580" width="200" height="40" fill="#4ADDD5"/>
<path d="M126.66 594.64V605H124.266V594.64H126.66ZM135.759 600.968C135.759 601.192 135.745 601.425 135.717 601.668H130.299C130.337 602.153 130.491 602.527 130.761 602.788C131.041 603.04 131.382 603.166 131.783 603.166C132.381 603.166 132.796 602.914 133.029 602.41H135.577C135.447 602.923 135.209 603.385 134.863 603.796C134.527 604.207 134.103 604.529 133.589 604.762C133.076 604.995 132.502 605.112 131.867 605.112C131.102 605.112 130.421 604.949 129.823 604.622C129.226 604.295 128.759 603.829 128.423 603.222C128.087 602.615 127.919 601.906 127.919 601.094C127.919 600.282 128.083 599.573 128.409 598.966C128.745 598.359 129.212 597.893 129.809 597.566C130.407 597.239 131.093 597.076 131.867 597.076C132.623 597.076 133.295 597.235 133.883 597.552C134.471 597.869 134.929 598.322 135.255 598.91C135.591 599.498 135.759 600.184 135.759 600.968ZM133.309 600.338C133.309 599.927 133.169 599.601 132.889 599.358C132.609 599.115 132.259 598.994 131.839 598.994C131.438 598.994 131.097 599.111 130.817 599.344C130.547 599.577 130.379 599.909 130.313 600.338H133.309ZM141.376 602.97V605H140.158C139.29 605 138.614 604.79 138.128 604.37C137.643 603.941 137.4 603.245 137.4 602.284V599.176H136.448V597.188H137.4V595.284H139.794V597.188H141.362V599.176H139.794V602.312C139.794 602.545 139.85 602.713 139.962 602.816C140.074 602.919 140.261 602.97 140.522 602.97H141.376ZM143.256 595.172H145.706L144.138 598.924H142.528L143.256 595.172ZM150.29 605.112C149.609 605.112 149.002 604.995 148.47 604.762C147.938 604.529 147.518 604.211 147.21 603.81C146.902 603.399 146.729 602.942 146.692 602.438H149.058C149.086 602.709 149.212 602.928 149.436 603.096C149.66 603.264 149.935 603.348 150.262 603.348C150.561 603.348 150.789 603.292 150.948 603.18C151.116 603.059 151.2 602.905 151.2 602.718C151.2 602.494 151.083 602.331 150.85 602.228C150.617 602.116 150.239 601.995 149.716 601.864C149.156 601.733 148.689 601.598 148.316 601.458C147.943 601.309 147.621 601.08 147.35 600.772C147.079 600.455 146.944 600.03 146.944 599.498C146.944 599.05 147.065 598.644 147.308 598.28C147.56 597.907 147.924 597.613 148.4 597.398C148.885 597.183 149.459 597.076 150.122 597.076C151.102 597.076 151.872 597.319 152.432 597.804C153.001 598.289 153.328 598.933 153.412 599.736H151.2C151.163 599.465 151.041 599.251 150.836 599.092C150.64 598.933 150.379 598.854 150.052 598.854C149.772 598.854 149.557 598.91 149.408 599.022C149.259 599.125 149.184 599.269 149.184 599.456C149.184 599.68 149.301 599.848 149.534 599.96C149.777 600.072 150.15 600.184 150.654 600.296C151.233 600.445 151.704 600.595 152.068 600.744C152.432 600.884 152.749 601.117 153.02 601.444C153.3 601.761 153.445 602.191 153.454 602.732C153.454 603.189 153.323 603.6 153.062 603.964C152.81 604.319 152.441 604.599 151.956 604.804C151.48 605.009 150.925 605.112 150.29 605.112ZM160.854 597.076C161.404 597.076 161.885 597.188 162.296 597.412C162.716 597.636 163.038 597.93 163.262 598.294V597.188H165.656V604.986C165.656 605.705 165.511 606.353 165.222 606.932C164.942 607.52 164.508 607.987 163.92 608.332C163.341 608.677 162.618 608.85 161.75 608.85C160.592 608.85 159.654 608.575 158.936 608.024C158.217 607.483 157.806 606.745 157.704 605.812H160.07C160.144 606.111 160.322 606.344 160.602 606.512C160.882 606.689 161.227 606.778 161.638 606.778C162.132 606.778 162.524 606.633 162.814 606.344C163.112 606.064 163.262 605.611 163.262 604.986V603.88C163.028 604.244 162.706 604.543 162.296 604.776C161.885 605 161.404 605.112 160.854 605.112C160.21 605.112 159.626 604.949 159.104 604.622C158.581 604.286 158.166 603.815 157.858 603.208C157.559 602.592 157.41 601.883 157.41 601.08C157.41 600.277 157.559 599.573 157.858 598.966C158.166 598.359 158.581 597.893 159.104 597.566C159.626 597.239 160.21 597.076 160.854 597.076ZM163.262 601.094C163.262 600.497 163.094 600.025 162.758 599.68C162.431 599.335 162.03 599.162 161.554 599.162C161.078 599.162 160.672 599.335 160.336 599.68C160.009 600.016 159.846 600.483 159.846 601.08C159.846 601.677 160.009 602.153 160.336 602.508C160.672 602.853 161.078 603.026 161.554 603.026C162.03 603.026 162.431 602.853 162.758 602.508C163.094 602.163 163.262 601.691 163.262 601.094ZM174.752 600.968C174.752 601.192 174.738 601.425 174.71 601.668H169.292C169.329 602.153 169.483 602.527 169.754 602.788C170.034 603.04 170.374 603.166 170.776 603.166C171.373 603.166 171.788 602.914 172.022 602.41H174.57C174.439 602.923 174.201 603.385 173.856 603.796C173.52 604.207 173.095 604.529 172.582 604.762C172.068 604.995 171.494 605.112 170.86 605.112C170.094 605.112 169.413 604.949 168.816 604.622C168.218 604.295 167.752 603.829 167.416 603.222C167.08 602.615 166.912 601.906 166.912 601.094C166.912 600.282 167.075 599.573 167.402 598.966C167.738 598.359 168.204 597.893 168.802 597.566C169.399 597.239 170.085 597.076 170.86 597.076C171.616 597.076 172.288 597.235 172.876 597.552C173.464 597.869 173.921 598.322 174.248 598.91C174.584 599.498 174.752 600.184 174.752 600.968ZM172.302 600.338C172.302 599.927 172.162 599.601 171.882 599.358C171.602 599.115 171.252 598.994 170.832 598.994C170.43 598.994 170.09 599.111 169.81 599.344C169.539 599.577 169.371 599.909 169.306 600.338H172.302ZM180.368 602.97V605H179.15C178.282 605 177.606 604.79 177.12 604.37C176.635 603.941 176.392 603.245 176.392 602.284V599.176H175.44V597.188H176.392V595.284H178.786V597.188H180.354V599.176H178.786V602.312C178.786 602.545 178.842 602.713 178.954 602.816C179.066 602.919 179.253 602.97 179.514 602.97H180.368ZM187.847 605.112C187.165 605.112 186.559 604.995 186.027 604.762C185.495 604.529 185.075 604.211 184.767 603.81C184.459 603.399 184.286 602.942 184.249 602.438H186.615C186.643 602.709 186.769 602.928 186.993 603.096C187.217 603.264 187.492 603.348 187.819 603.348C188.117 603.348 188.346 603.292 188.505 603.18C188.673 603.059 188.757 602.905 188.757 602.718C188.757 602.494 188.64 602.331 188.407 602.228C188.173 602.116 187.795 601.995 187.273 601.864C186.713 601.733 186.246 601.598 185.873 601.458C185.499 601.309 185.177 601.08 184.907 600.772C184.636 600.455 184.501 600.03 184.501 599.498C184.501 599.05 184.622 598.644 184.865 598.28C185.117 597.907 185.481 597.613 185.957 597.398C186.442 597.183 187.016 597.076 187.679 597.076C188.659 597.076 189.429 597.319 189.989 597.804C190.558 598.289 190.885 598.933 190.969 599.736H188.757C188.719 599.465 188.598 599.251 188.393 599.092C188.197 598.933 187.935 598.854 187.609 598.854C187.329 598.854 187.114 598.91 186.965 599.022C186.815 599.125 186.741 599.269 186.741 599.456C186.741 599.68 186.857 599.848 187.091 599.96C187.333 600.072 187.707 600.184 188.211 600.296C188.789 600.445 189.261 600.595 189.625 600.744C189.989 600.884 190.306 601.117 190.577 601.444C190.857 601.761 191.001 602.191 191.011 602.732C191.011 603.189 190.88 603.6 190.619 603.964C190.367 604.319 189.998 604.599 189.513 604.804C189.037 605.009 188.481 605.112 187.847 605.112ZM196.829 602.97V605H195.611C194.743 605 194.067 604.79 193.581 604.37C193.096 603.941 192.853 603.245 192.853 602.284V599.176H191.901V597.188H192.853V595.284H195.247V597.188H196.815V599.176H195.247V602.312C195.247 602.545 195.303 602.713 195.415 602.816C195.527 602.919 195.714 602.97 195.975 602.97H196.829ZM197.687 601.08C197.687 600.277 197.836 599.573 198.135 598.966C198.443 598.359 198.858 597.893 199.381 597.566C199.904 597.239 200.487 597.076 201.131 597.076C201.682 597.076 202.162 597.188 202.573 597.412C202.993 597.636 203.315 597.93 203.539 598.294V597.188H205.933V605H203.539V603.894C203.306 604.258 202.979 604.552 202.559 604.776C202.148 605 201.668 605.112 201.117 605.112C200.482 605.112 199.904 604.949 199.381 604.622C198.858 604.286 198.443 603.815 198.135 603.208C197.836 602.592 197.687 601.883 197.687 601.08ZM203.539 601.094C203.539 600.497 203.371 600.025 203.035 599.68C202.708 599.335 202.307 599.162 201.831 599.162C201.355 599.162 200.949 599.335 200.613 599.68C200.286 600.016 200.123 600.483 200.123 601.08C200.123 601.677 200.286 602.153 200.613 602.508C200.949 602.853 201.355 603.026 201.831 603.026C202.307 603.026 202.708 602.853 203.035 602.508C203.371 602.163 203.539 601.691 203.539 601.094ZM210.059 598.49C210.339 598.061 210.689 597.725 211.109 597.482C211.529 597.23 211.996 597.104 212.509 597.104V599.638H211.851C211.254 599.638 210.806 599.769 210.507 600.03C210.208 600.282 210.059 600.73 210.059 601.374V605H207.665V597.188H210.059V598.49ZM218.007 602.97V605H216.789C215.921 605 215.244 604.79 214.759 604.37C214.274 603.941 214.031 603.245 214.031 602.284V599.176H213.079V597.188H214.031V595.284H216.425V597.188H217.993V599.176H216.425V602.312C216.425 602.545 216.481 602.713 216.593 602.816C216.705 602.919 216.892 602.97 217.153 602.97H218.007ZM226.705 600.968C226.705 601.192 226.691 601.425 226.663 601.668H221.245C221.282 602.153 221.436 602.527 221.707 602.788C221.987 603.04 222.327 603.166 222.729 603.166C223.326 603.166 223.741 602.914 223.975 602.41H226.523C226.392 602.923 226.154 603.385 225.809 603.796C225.473 604.207 225.048 604.529 224.535 604.762C224.021 604.995 223.447 605.112 222.813 605.112C222.047 605.112 221.366 604.949 220.769 604.622C220.171 604.295 219.705 603.829 219.369 603.222C219.033 602.615 218.865 601.906 218.865 601.094C218.865 600.282 219.028 599.573 219.355 598.966C219.691 598.359 220.157 597.893 220.755 597.566C221.352 597.239 222.038 597.076 222.813 597.076C223.569 597.076 224.241 597.235 224.829 597.552C225.417 597.869 225.874 598.322 226.201 598.91C226.537 599.498 226.705 600.184 226.705 600.968ZM224.255 600.338C224.255 599.927 224.115 599.601 223.835 599.358C223.555 599.115 223.205 598.994 222.785 598.994C222.383 598.994 222.043 599.111 221.763 599.344C221.492 599.577 221.324 599.909 221.259 600.338H224.255ZM227.492 601.08C227.492 600.277 227.641 599.573 227.94 598.966C228.248 598.359 228.663 597.893 229.186 597.566C229.708 597.239 230.292 597.076 230.936 597.076C231.449 597.076 231.916 597.183 232.336 597.398C232.765 597.613 233.101 597.902 233.344 598.266V594.64H235.738V605H233.344V603.88C233.12 604.253 232.798 604.552 232.378 604.776C231.967 605 231.486 605.112 230.936 605.112C230.292 605.112 229.708 604.949 229.186 604.622C228.663 604.286 228.248 603.815 227.94 603.208C227.641 602.592 227.492 601.883 227.492 601.08ZM233.344 601.094C233.344 600.497 233.176 600.025 232.84 599.68C232.513 599.335 232.112 599.162 231.636 599.162C231.16 599.162 230.754 599.335 230.418 599.68C230.091 600.016 229.928 600.483 229.928 601.08C229.928 601.677 230.091 602.153 230.418 602.508C230.754 602.853 231.16 603.026 231.636 603.026C232.112 603.026 232.513 602.853 232.84 602.508C233.176 602.163 233.344 601.691 233.344 601.094Z" fill="white"/>
<path d="M152.262 563.09V565.078H155.468V566.926H152.262V569.082H155.888V571H149.868V561.172H155.888V563.09H152.262ZM163.462 571L161.46 567.99L159.696 571H156.98L160.13 566.002L156.91 561.172H159.696L161.67 564.14L163.406 561.172H166.122L163 566.128L166.248 571H163.462ZM169.844 563.09V565.078H173.05V566.926H169.844V569.082H173.47V571H167.45V561.172H173.47V563.09H169.844ZM174.618 566.072C174.618 565.101 174.828 564.238 175.248 563.482C175.668 562.717 176.252 562.124 176.998 561.704C177.754 561.275 178.608 561.06 179.56 561.06C180.727 561.06 181.726 561.368 182.556 561.984C183.387 562.6 183.942 563.44 184.222 564.504H181.59C181.394 564.093 181.114 563.781 180.75 563.566C180.396 563.351 179.99 563.244 179.532 563.244C178.795 563.244 178.198 563.501 177.74 564.014C177.283 564.527 177.054 565.213 177.054 566.072C177.054 566.931 177.283 567.617 177.74 568.13C178.198 568.643 178.795 568.9 179.532 568.9C179.99 568.9 180.396 568.793 180.75 568.578C181.114 568.363 181.394 568.051 181.59 567.64H184.222C183.942 568.704 183.387 569.544 182.556 570.16C181.726 570.767 180.727 571.07 179.56 571.07C178.608 571.07 177.754 570.86 176.998 570.44C176.252 570.011 175.668 569.418 175.248 568.662C174.828 567.906 174.618 567.043 174.618 566.072ZM188.04 561.172V567.052C188.04 567.64 188.185 568.093 188.474 568.41C188.764 568.727 189.188 568.886 189.748 568.886C190.308 568.886 190.738 568.727 191.036 568.41C191.335 568.093 191.484 567.64 191.484 567.052V561.172H193.878V567.038C193.878 567.915 193.692 568.657 193.318 569.264C192.945 569.871 192.441 570.328 191.806 570.636C191.181 570.944 190.481 571.098 189.706 571.098C188.932 571.098 188.236 570.949 187.62 570.65C187.014 570.342 186.533 569.885 186.178 569.278C185.824 568.662 185.646 567.915 185.646 567.038V561.172H188.04ZM202.629 561.172V563.09H200.025V571H197.631V563.09H195.027V561.172H202.629ZM206.225 563.09V565.078H209.431V566.926H206.225V569.082H209.851V571H203.831V561.172H209.851V563.09H206.225Z" fill="black"/>
<g clip-path="url(#clip1_4_2)">
<path d="M180.401 412.2C180.393 412.689 180.289 413.173 180.095 413.622C179.902 414.071 179.623 414.478 179.275 414.818C178.926 415.158 178.515 415.425 178.064 415.605C177.613 415.784 177.132 415.871 176.648 415.863H159.236C159.172 415.861 159.109 415.859 159.046 415.854C158.883 415.844 158.721 415.821 158.561 415.787V409.551C158.561 409.302 158.636 409.058 158.777 408.853C158.917 408.648 159.116 408.491 159.347 408.404H176.781C177.758 408.423 178.688 408.833 179.367 409.544C180.045 410.256 180.417 411.211 180.401 412.2H180.401Z" fill="#E6E6E6"/>
<path d="M272.331 408H160.035C159.793 407.999 159.553 408.044 159.327 408.133C158.945 408.278 158.615 408.537 158.382 408.877C158.149 409.217 158.025 409.62 158.025 410.034V533.947C158.025 534.486 158.237 535.004 158.614 535.385C158.991 535.766 159.502 535.981 160.035 535.981H272.331C272.864 535.981 273.375 535.766 273.752 535.385C274.129 535.004 274.341 534.486 274.341 533.947V410.034C274.341 409.494 274.129 408.977 273.752 408.596C273.375 408.215 272.864 408 272.331 408V408ZM273.537 533.947C273.536 534.271 273.409 534.581 273.183 534.809C272.957 535.038 272.65 535.167 272.331 535.167H160.035C159.715 535.167 159.409 535.038 159.183 534.809C158.957 534.581 158.829 534.271 158.829 533.947V410.034C158.829 409.71 158.957 409.4 159.183 409.171C159.409 408.943 159.715 408.814 160.035 408.813H272.331C272.65 408.814 272.957 408.943 273.183 409.171C273.409 409.4 273.536 409.71 273.537 410.034V533.947Z" fill="#E6E6E6"/>
<path d="M212.73 450.576C214.187 450.576 215.368 449.381 215.368 447.907C215.368 446.433 214.187 445.238 212.73 445.238C211.273 445.238 210.092 446.433 210.092 447.907C210.092 449.381 211.273 450.576 212.73 450.576Z" fill="#88F5EF"/>
<path d="M223.722 450.576C225.179 450.576 226.36 449.381 226.36 447.907C226.36 446.433 225.179 445.238 223.722 445.238C222.265 445.238 221.084 446.433 221.084 447.907C221.084 449.381 222.265 450.576 223.722 450.576Z" fill="#88F5EF"/>
<path d="M190.747 472.63C192.204 472.63 193.385 471.436 193.385 469.962C193.385 468.488 192.204 467.293 190.747 467.293C189.29 467.293 188.109 468.488 188.109 469.962C188.109 471.436 189.29 472.63 190.747 472.63Z" fill="#88F5EF"/>
<path d="M201.739 472.63C203.195 472.63 204.377 471.436 204.377 469.962C204.377 468.488 203.195 467.293 201.739 467.293C200.282 467.293 199.101 468.488 199.101 469.962C199.101 471.436 200.282 472.63 201.739 472.63Z" fill="#88F5EF"/>
<path d="M212.73 483.658C214.187 483.658 215.368 482.463 215.368 480.989C215.368 479.515 214.187 478.32 212.73 478.32C211.273 478.32 210.092 479.515 210.092 480.989C210.092 482.463 211.273 483.658 212.73 483.658Z" fill="#88F5EF"/>
<path d="M223.722 483.658C225.179 483.658 226.36 482.463 226.36 480.989C226.36 479.515 225.179 478.32 223.722 478.32C222.265 478.32 221.084 479.515 221.084 480.989C221.084 482.463 222.265 483.658 223.722 483.658Z" fill="#88F5EF"/>
<path d="M234.714 483.658C236.171 483.658 237.352 482.463 237.352 480.989C237.352 479.515 236.171 478.32 234.714 478.32C233.257 478.32 232.076 479.515 232.076 480.989C232.076 482.463 233.257 483.658 234.714 483.658Z" fill="#88F5EF"/>
<path d="M168.612 409.972C168.553 410.031 168.52 410.112 168.52 410.196C168.52 410.28 168.553 410.361 168.612 410.421L168.612 410.421L169.958 411.782H166.638C166.555 411.783 166.476 411.816 166.417 411.876C166.358 411.935 166.326 412.016 166.326 412.1C166.326 412.184 166.358 412.264 166.417 412.324C166.476 412.383 166.555 412.417 166.638 412.417H169.958L168.612 413.779C168.553 413.838 168.52 413.919 168.52 414.003C168.52 414.087 168.553 414.168 168.612 414.228C168.67 414.287 168.75 414.32 168.833 414.32C168.916 414.32 168.996 414.287 169.055 414.228V414.228L170.937 412.324C170.995 412.265 171.028 412.184 171.028 412.1C171.028 412.016 170.995 411.935 170.937 411.875L169.055 409.972C168.996 409.912 168.916 409.879 168.833 409.879C168.75 409.879 168.67 409.912 168.612 409.972H168.612Z" fill="white"/>
<path d="M248.115 453.601H177.282C177.008 453.601 176.786 453.479 176.786 453.33C176.786 453.18 177.008 453.059 177.282 453.059H248.115C248.389 453.059 248.612 453.18 248.612 453.33C248.612 453.479 248.389 453.601 248.115 453.601Z" fill="#E6E6E6"/>
<path d="M248.115 441.622H177.282C177.008 441.622 176.786 441.501 176.786 441.351C176.786 441.201 177.008 441.08 177.282 441.08H248.115C248.389 441.08 248.612 441.201 248.612 441.351C248.612 441.501 248.389 441.622 248.115 441.622Z" fill="#E6E6E6"/>
<path d="M248.344 464.789H177.117C177.046 464.789 176.978 464.76 176.928 464.71C176.877 464.659 176.849 464.59 176.849 464.518C176.849 464.446 176.877 464.377 176.928 464.326C176.978 464.275 177.046 464.247 177.117 464.247H248.344C248.415 464.247 248.483 464.275 248.533 464.326C248.583 464.377 248.612 464.446 248.612 464.518C248.612 464.59 248.583 464.659 248.533 464.71C248.483 464.76 248.415 464.789 248.344 464.789Z" fill="#E6E6E6"/>
<path d="M248.344 475.635H177.117C177.046 475.635 176.978 475.606 176.928 475.555C176.877 475.505 176.849 475.436 176.849 475.364C176.849 475.292 176.877 475.223 176.928 475.172C176.978 475.121 177.046 475.093 177.117 475.093H248.344C248.415 475.093 248.483 475.121 248.533 475.172C248.583 475.223 248.612 475.292 248.612 475.364C248.612 475.436 248.583 475.505 248.533 475.555C248.483 475.606 248.415 475.635 248.344 475.635Z" fill="#E6E6E6"/>
<path d="M248.344 486.752H177.117C177.046 486.752 176.978 486.723 176.928 486.672C176.877 486.622 176.849 486.553 176.849 486.481C176.849 486.409 176.877 486.34 176.928 486.289C176.978 486.238 177.046 486.21 177.117 486.21H248.344C248.415 486.21 248.483 486.238 248.533 486.289C248.583 486.34 248.612 486.409 248.612 486.481C248.612 486.553 248.583 486.622 248.533 486.672C248.483 486.723 248.415 486.752 248.344 486.752Z" fill="#E6E6E6"/>
<path d="M240.036 486.193V441.519C240.036 441.426 240.156 441.351 240.304 441.351C240.452 441.351 240.572 441.426 240.572 441.519V486.193C240.572 486.286 240.452 486.361 240.304 486.361C240.156 486.361 240.036 486.286 240.036 486.193Z" fill="#E6E6E6"/>
<path d="M229.047 486.193V441.519C229.047 441.426 229.167 441.351 229.315 441.351C229.463 441.351 229.583 441.426 229.583 441.519V486.193C229.583 486.286 229.463 486.361 229.315 486.361C229.167 486.361 229.047 486.286 229.047 486.193Z" fill="#E6E6E6"/>
<path d="M218.059 486.193V441.519C218.059 441.426 218.179 441.351 218.327 441.351C218.475 441.351 218.595 441.426 218.595 441.519V486.193C218.595 486.286 218.475 486.361 218.327 486.361C218.179 486.361 218.059 486.286 218.059 486.193Z" fill="#E6E6E6"/>
<path d="M207.339 486.193V441.519C207.339 441.426 207.459 441.351 207.607 441.351C207.755 441.351 207.875 441.426 207.875 441.519V486.193C207.875 486.286 207.755 486.361 207.607 486.361C207.459 486.361 207.339 486.286 207.339 486.193Z" fill="#E6E6E6"/>
<path d="M196.082 497.539V441.562C196.097 441.501 196.132 441.448 196.18 441.41C196.229 441.372 196.289 441.351 196.35 441.351C196.412 441.351 196.471 441.372 196.52 441.41C196.568 441.448 196.603 441.501 196.618 441.562V497.539C196.603 497.599 196.568 497.652 196.52 497.69C196.471 497.729 196.412 497.749 196.35 497.749C196.289 497.749 196.229 497.729 196.18 497.69C196.132 497.652 196.097 497.599 196.082 497.539V497.539Z" fill="#E6E6E6"/>
<path d="M184.826 497.539V441.562C184.841 441.501 184.876 441.448 184.924 441.41C184.973 441.372 185.032 441.351 185.094 441.351C185.155 441.351 185.215 441.372 185.263 441.41C185.312 441.448 185.347 441.501 185.362 441.562V497.539C185.347 497.599 185.312 497.652 185.263 497.69C185.215 497.729 185.155 497.749 185.094 497.749C185.032 497.749 184.973 497.729 184.924 497.69C184.876 497.652 184.841 497.599 184.826 497.539Z" fill="#E6E6E6"/>
<path d="M177.117 497.869C177.046 497.869 176.978 497.841 176.927 497.79C176.877 497.739 176.849 497.67 176.849 497.598C176.848 497.526 176.876 497.457 176.927 497.406C176.977 497.356 177.045 497.327 177.116 497.327L204.389 497.207C204.46 497.208 204.527 497.237 204.577 497.288C204.627 497.338 204.656 497.406 204.658 497.477C204.659 497.513 204.652 497.548 204.638 497.581C204.625 497.614 204.606 497.644 204.581 497.669C204.556 497.694 204.527 497.714 204.494 497.728C204.462 497.742 204.427 497.749 204.392 497.749L177.118 497.869H177.117Z" fill="#E6E6E6"/>
<path d="M197.057 429.74C196.986 429.74 196.918 429.712 196.867 429.661C196.817 429.61 196.789 429.541 196.789 429.469C196.789 429.397 196.817 429.328 196.867 429.277C196.917 429.226 196.985 429.198 197.057 429.198L235.308 429.149H235.309C235.38 429.149 235.448 429.178 235.498 429.229C235.549 429.279 235.577 429.348 235.577 429.42C235.577 429.492 235.549 429.561 235.499 429.612C235.448 429.663 235.38 429.692 235.309 429.692L197.057 429.74H197.057Z" fill="#E6E6E6"/>
<path d="M210.009 518.14C208.947 518.14 207.909 517.822 207.026 517.225C206.143 516.628 205.455 515.779 205.048 514.787C204.642 513.794 204.535 512.702 204.743 511.648C204.95 510.594 205.461 509.626 206.212 508.866C206.963 508.107 207.92 507.589 208.962 507.38C210.003 507.17 211.083 507.278 212.064 507.689C213.045 508.1 213.884 508.796 214.474 509.69C215.064 510.583 215.379 511.633 215.379 512.708C215.379 513.421 215.24 514.128 214.97 514.787C214.7 515.446 214.305 516.045 213.806 516.549C213.307 517.054 212.715 517.454 212.064 517.727C211.413 518 210.714 518.14 210.009 518.14V518.14Z" fill="#E6E6E6"/>
<path d="M212.128 512.172H210.539V510.564C210.539 510.422 210.483 510.286 210.384 510.185C210.284 510.085 210.15 510.028 210.009 510.028C209.869 510.028 209.734 510.085 209.635 510.185C209.535 510.286 209.479 510.422 209.479 510.564V512.172H207.89C207.75 512.172 207.615 512.228 207.516 512.329C207.417 512.429 207.361 512.566 207.361 512.708C207.361 512.85 207.417 512.986 207.516 513.087C207.615 513.187 207.75 513.244 207.89 513.244H209.479V514.851C209.479 514.922 209.493 514.992 209.519 515.057C209.546 515.122 209.585 515.181 209.634 515.231C209.683 515.281 209.742 515.32 209.806 515.347C209.871 515.374 209.939 515.388 210.009 515.388C210.079 515.388 210.148 515.374 210.212 515.347C210.276 515.32 210.335 515.281 210.384 515.231C210.433 515.181 210.472 515.122 210.499 515.057C210.525 514.992 210.539 514.922 210.539 514.851V513.244H212.128C212.268 513.244 212.403 513.187 212.502 513.087C212.602 512.986 212.658 512.85 212.658 512.708C212.658 512.566 212.602 512.429 212.502 512.329C212.403 512.228 212.268 512.172 212.128 512.172V512.172Z" fill="white"/>
<path d="M222.338 518.14C221.276 518.14 220.237 517.822 219.354 517.225C218.471 516.628 217.783 515.779 217.377 514.787C216.97 513.794 216.864 512.702 217.071 511.648C217.278 510.594 217.79 509.626 218.541 508.866C219.292 508.107 220.248 507.589 221.29 507.38C222.332 507.17 223.411 507.278 224.392 507.689C225.374 508.1 226.212 508.796 226.802 509.69C227.392 510.583 227.707 511.633 227.707 512.708C227.707 513.421 227.568 514.128 227.298 514.787C227.029 515.446 226.633 516.045 226.134 516.549C225.636 517.054 225.044 517.454 224.392 517.727C223.741 518 223.043 518.14 222.338 518.14V518.14Z" fill="#E6E6E6"/>
<path d="M225.055 515.019L223.657 513.363C223.984 512.894 224.126 512.318 224.055 511.749C223.984 511.179 223.705 510.657 223.273 510.285C222.84 509.913 222.286 509.719 221.719 509.74C221.152 509.761 220.613 509.996 220.208 510.398C219.804 510.801 219.563 511.342 219.533 511.915C219.503 512.488 219.686 513.052 220.047 513.496C220.407 513.939 220.918 514.23 221.48 514.311C222.042 514.393 222.613 514.258 223.082 513.935L224.444 515.548C224.513 515.629 224.612 515.679 224.718 515.688C224.824 515.696 224.929 515.661 225.009 515.591C225.09 515.522 225.14 515.422 225.149 515.315C225.158 515.208 225.124 515.102 225.055 515.019V515.019ZM220.327 512.03C220.327 511.735 220.414 511.447 220.576 511.201C220.738 510.956 220.968 510.765 221.237 510.652C221.507 510.539 221.803 510.51 222.089 510.567C222.375 510.625 222.638 510.767 222.844 510.975C223.05 511.184 223.19 511.45 223.247 511.739C223.304 512.028 223.275 512.328 223.163 512.601C223.052 512.873 222.863 513.106 222.62 513.27C222.378 513.434 222.093 513.521 221.802 513.521C221.411 513.521 221.036 513.363 220.76 513.084C220.483 512.804 220.328 512.425 220.327 512.03V512.03Z" fill="white"/>
<path d="M197.057 518.676C196.986 518.676 196.918 518.647 196.867 518.597C196.817 518.546 196.789 518.477 196.789 518.405C196.789 518.333 196.817 518.264 196.867 518.213C196.917 518.162 196.985 518.134 197.057 518.134L235.308 518.085H235.309C235.38 518.085 235.448 518.114 235.498 518.164C235.549 518.215 235.577 518.284 235.577 518.356C235.577 518.428 235.549 518.497 235.499 518.548C235.448 518.599 235.38 518.627 235.309 518.627L197.057 518.676H197.057Z" fill="#E6E6E6"/>
<path d="M148.106 554.151L151.525 554.151L153.152 540.809L148.105 540.81L148.106 554.151Z" fill="#FFB6B6"/>
<path d="M147.235 553.021V557.503H158.258V557.362C158.258 556.211 157.806 555.107 157.002 554.293C156.197 553.479 155.106 553.021 153.968 553.021L151.952 551.476L151.848 551.519L148.197 553.021H147.235Z" fill="#2F2E41"/>
<path d="M117.214 549.654L120.274 551.197L127.613 539.99L123.096 537.713L117.214 549.654Z" fill="#FFB6B6"/>
<path d="M114.956 552.262L124.822 557.235L124.883 557.11C125.135 556.6 125.285 556.045 125.324 555.476C125.364 554.907 125.292 554.336 125.114 553.796C124.935 553.255 124.653 552.755 124.283 552.325C123.913 551.895 123.463 551.543 122.959 551.288L121.836 548.997L121.718 548.989L117.794 548.683L117.714 548.642L116.931 548.249L114.956 552.262Z" fill="#2F2E41"/>
<path d="M150.425 482.442L131.573 483.109L131.441 482.916C131.441 482.916 129.833 486.712 129.833 489.966C129.833 491.048 130.577 498.124 130.199 499.462C130.152 499.629 130.476 500.037 130.369 500.812C130.301 501.315 129.921 500.928 129.833 501.625C129.771 502.126 130.439 502.402 130.369 502.981C130.293 503.614 129.373 505.662 129.291 506.366C128.409 513.857 127.236 524.708 127.236 524.708C127.236 524.708 122.522 537.48 121.525 537.688C119.852 538.036 118.722 541.115 119.649 541.755C120.091 542.06 125.798 544.111 125.798 544.111C126.112 544.168 127.093 543.67 126.468 542.493C126.353 542.276 127.039 542.828 127.153 542.568C127.275 542.293 127.037 541.195 127.175 540.888C128.423 538.138 130.338 534.327 132.153 532.37C134.834 529.478 136.533 525.795 137 521.859L141.163 498.506L142.589 505.055L143.77 506.235L143.446 508.987L143.502 511.658L146.45 522.775C146.45 522.775 146.892 543.536 146.182 544.195C145.797 544.552 144.165 548.951 147.254 549.347L152.866 548.909C152.866 548.909 153.622 547.297 153.244 546.723C152.866 546.15 152.888 546.306 153.35 545.367C153.811 544.428 153.622 542.838 153.622 542.838C154.357 535.361 154.647 527.846 154.49 520.334C154.209 507.996 152.504 493.823 152.504 493.534C152.49 493.239 152.544 492.944 152.661 492.673V491.895L151.937 489.135L150.425 482.442Z" fill="#2F2E41"/>
<path d="M126.018 489.379C125.86 489.106 125.763 488.801 125.734 488.486C125.705 488.17 125.745 487.852 125.851 487.554C125.956 487.256 126.125 486.985 126.345 486.76C126.566 486.536 126.832 486.362 127.126 486.253L126.99 472.549L130.331 474.687L129.947 487.676C130.096 488.187 130.055 488.736 129.831 489.218C129.606 489.701 129.215 490.083 128.731 490.293C128.246 490.503 127.703 490.526 127.203 490.358C126.703 490.189 126.281 489.841 126.018 489.379Z" fill="#FFB8B8"/>
<path d="M126.781 483.634L127.065 483.621L127.099 483.621L128.151 483.618L129.884 483.614L130.01 483.612L130.066 483.623L130.658 483.727L130.682 483.567L131.836 481.338L132.722 480.104L132.4 478.65L131.764 477.849L132.844 476.524L132.981 475.869L133.885 471.566L136.883 457.293L136.883 457.285L136.946 456.982L137.921 452.345L137.621 451.179L137.286 449.899C137.072 449.087 136.576 448.379 135.888 447.907C135.59 447.702 135.261 447.547 134.915 447.447C134.474 447.314 134.01 447.276 133.553 447.333L133.548 447.335C133.289 447.367 133.034 447.43 132.789 447.521L132.691 447.559C132.555 447.615 132.423 447.679 132.295 447.752C131.899 447.975 131.551 448.275 131.271 448.635C130.99 448.995 130.784 449.408 130.663 449.85L127.486 453.43L126.927 455.456L126.748 456.106L126.172 459.574L126.18 473.222L126.078 473.84L125.932 477.266L126.502 478.052L125.858 479.004L125.836 479.527L125.832 479.661L126.691 480.544L126.746 482.449L126.781 483.634Z" fill="#3F3D56"/>
<path d="M129.884 486.903C134.644 487.736 137.836 487.419 139.8 484.463C142.363 481.162 147.023 485.06 150.956 486.509L151.422 486L152.215 485.135L151.486 484.299L152.215 482.689L151.607 480.701L150.83 480.558L151.039 478.847L151.366 477.846L150.406 476.781L149.591 474.121L150.178 468.554C150.982 460.924 149.425 453.229 145.724 446.532L143.497 444.509L142.572 443.668L141.331 441.326L140.021 441.48L136.472 441.895L136.352 442.188L135.481 444.314L132.316 447.752C131.869 448.239 131.529 448.816 131.319 449.446C131.109 450.075 131.034 450.743 131.099 451.404V451.404L131.19 452.331L131.257 452.998L131.573 456.209L132.862 469.324L132.959 470.021L133.996 477.562C132.31 479.21 132.208 478.85 131.492 481.752C131.412 482.074 130.479 482.793 130.42 483.107C130.337 483.552 129.884 486.903 129.884 486.903Z" fill="#3F3D56"/>
<path d="M139.549 439.944C142.953 439.944 145.712 437.152 145.712 433.708C145.712 430.265 142.953 427.473 139.549 427.473C136.145 427.473 133.385 430.265 133.385 433.708C133.385 437.152 136.145 439.944 139.549 439.944Z" fill="#FFB6B6"/>
<path d="M133.101 429.014C133.928 428.143 135.249 427.713 136.371 428.127C136.622 427.4 137.066 426.757 137.653 426.268C138.24 425.779 138.948 425.462 139.701 425.352C140.454 425.242 141.222 425.342 141.922 425.643C142.622 425.944 143.227 426.434 143.671 427.059C143.874 426.967 144.097 426.929 144.319 426.95C144.541 426.97 144.753 427.048 144.936 427.176C145.3 427.438 145.593 427.787 145.788 428.193C146.292 429.161 146.527 430.25 146.467 431.343C146.408 432.436 146.057 433.492 145.452 434.399C145.693 433.906 145.015 434.755 144.354 434.532C143.786 434.382 141.454 432.869 140.872 432.945C140.29 433.022 140.102 432.547 139.532 432.403C138.975 432.223 137.551 434.555 137.266 436.098C137.212 436.39 137.081 436.754 136.787 436.76C136.425 436.768 136.316 436.244 136.011 436.047C135.867 435.973 135.7 435.958 135.546 436.006C135.391 436.054 135.261 436.161 135.183 436.304C135.112 436.45 135.076 436.612 135.079 436.776C135.082 436.94 135.124 437.1 135.2 437.244C135.357 437.531 135.557 437.79 135.795 438.012L135.637 438.1C135.481 438.212 135.291 438.267 135.1 438.254C134.909 438.241 134.728 438.161 134.589 438.028C134.001 438.296 132.4 436.781 132.612 435.864C132.165 434.741 131.921 433.545 131.89 432.334C131.866 431.113 132.298 429.927 133.101 429.014Z" fill="#2F2E41"/>
<path d="M178.311 466.182C178.013 466.277 177.697 466.305 177.387 466.263C177.077 466.222 176.779 466.112 176.515 465.941C176.252 465.771 176.028 465.544 175.86 465.277C175.693 465.009 175.585 464.708 175.545 464.394L162.308 461.481L165.111 458.661L177.543 461.927C178.069 461.894 178.589 462.057 179.004 462.385C179.419 462.714 179.7 463.185 179.795 463.709C179.89 464.234 179.791 464.775 179.517 465.231C179.244 465.686 178.815 466.025 178.311 466.182V466.182Z" fill="#FFB8B8"/>
<path d="M142.54 446.849C141.772 446.878 141.036 447.164 140.448 447.663C140.122 447.936 139.851 448.269 139.648 448.644C139.424 449.051 139.285 449.5 139.238 449.964L139.238 449.966C139.169 450.649 139.302 451.336 139.619 451.942C139.936 452.549 140.424 453.046 141.02 453.372L145.381 455.763L145.933 456.065C149.649 459.896 155.913 461.899 163.12 463.227L167.264 464.374L168.657 463.851L168.994 465.191L170.381 465.237L171.135 465.078L172.713 464.452L173.014 463.839L173.014 463.836L173.662 460.929L173.666 460.91L173.666 460.908L173.817 460.243L172.927 459.826L172.153 458.78L170.753 458.808L169.477 458.921L169.103 458.035L152.926 450.462L149.577 448.893L149.568 448.888L149.409 448.812L145.039 446.767L143.85 446.805L142.54 446.849Z" fill="#3F3D56"/>
<path d="M177.889 469.556C179.346 469.556 180.527 468.361 180.527 466.887C180.527 465.413 179.346 464.218 177.889 464.218C176.432 464.218 175.251 465.413 175.251 466.887C175.251 468.361 176.432 469.556 177.889 469.556Z" fill="#88F5EF"/>
<path d="M102.266 556.13C100.331 556.302 98.3816 556.035 96.5612 555.348C94.7408 554.661 93.0951 553.572 91.7442 552.159C89.9779 550.275 88.7658 547.85 87.5936 545.504C87.2523 544.822 86.8996 544.116 86.5408 543.44C86.1407 542.702 85.968 541.861 86.045 541.023C86.122 540.186 86.4451 539.39 86.9727 538.74C87.4783 538.09 88.1647 537.609 88.9435 537.357C89.7222 537.105 90.5576 537.095 91.3421 537.328L91.5131 537.378L93.0526 543.455C93.2823 542.549 93.7752 540.507 94.0865 538.505L94.1127 538.338L94.266 538.407C95.8735 539.126 97.385 540.048 98.7649 541.15C101.209 543.133 103.197 545.632 104.591 548.471C105.985 551.311 106.751 554.424 106.835 557.593L106.839 557.782L102.266 556.13Z" fill="#F2F2F2"/>
<path d="M161.027 557.917L86.3191 558C86.2345 558 86.1533 557.966 86.0935 557.905C86.0336 557.845 86 557.763 86 557.677C86 557.592 86.0336 557.509 86.0935 557.449C86.1533 557.388 86.2345 557.354 86.3191 557.354L161.027 557.271C161.111 557.271 161.192 557.305 161.252 557.366C161.311 557.426 161.345 557.508 161.345 557.594C161.345 557.679 161.311 557.761 161.252 557.822C161.192 557.882 161.111 557.916 161.027 557.917V557.917Z" fill="#CACACA"/>
<path d="M223.285 426.118H209.081C208.761 426.118 208.454 425.99 208.228 425.761C208.002 425.532 207.875 425.222 207.875 424.898C207.875 424.574 208.002 424.264 208.228 424.035C208.454 423.806 208.761 423.678 209.081 423.678H223.285C223.605 423.678 223.912 423.806 224.138 424.035C224.364 424.264 224.491 424.574 224.491 424.898C224.491 425.222 224.364 425.532 224.138 425.761C223.912 425.99 223.605 426.118 223.285 426.118V426.118Z" fill="#E6E6E6"/>
<path d="M268.025 415.757C267.441 415.757 266.87 415.581 266.384 415.253C265.899 414.925 265.52 414.458 265.297 413.912C265.073 413.367 265.015 412.766 265.129 412.186C265.243 411.607 265.524 411.075 265.937 410.657C266.35 410.239 266.876 409.955 267.449 409.839C268.022 409.724 268.615 409.783 269.155 410.009C269.694 410.235 270.156 410.618 270.48 411.11C270.805 411.601 270.978 412.178 270.978 412.769C270.978 413.562 270.667 414.321 270.113 414.882C269.559 415.442 268.808 415.757 268.025 415.757V415.757Z" fill="#E6E6E6"/>
</g>
<path d="M157.358 391.336C157.358 391.905 157.227 392.428 156.966 392.904C156.705 393.371 156.303 393.749 155.762 394.038C155.221 394.327 154.549 394.472 153.746 394.472H152.262V398H149.868V388.172H153.746C154.53 388.172 155.193 388.307 155.734 388.578C156.275 388.849 156.681 389.222 156.952 389.698C157.223 390.174 157.358 390.72 157.358 391.336ZM153.564 392.568C154.021 392.568 154.362 392.461 154.586 392.246C154.81 392.031 154.922 391.728 154.922 391.336C154.922 390.944 154.81 390.641 154.586 390.426C154.362 390.211 154.021 390.104 153.564 390.104H152.262V392.568H153.564ZM163.616 398L161.572 394.29H160.998V398H158.604V388.172H162.622C163.397 388.172 164.055 388.307 164.596 388.578C165.147 388.849 165.558 389.222 165.828 389.698C166.099 390.165 166.234 390.687 166.234 391.266C166.234 391.919 166.048 392.503 165.674 393.016C165.31 393.529 164.769 393.893 164.05 394.108L166.318 398H163.616ZM160.998 392.596H162.482C162.921 392.596 163.248 392.489 163.462 392.274C163.686 392.059 163.798 391.756 163.798 391.364C163.798 390.991 163.686 390.697 163.462 390.482C163.248 390.267 162.921 390.16 162.482 390.16H160.998V392.596ZM170.131 390.09V392.078H173.337V393.926H170.131V396.082H173.757V398H167.737V388.172H173.757V390.09H170.131ZM182.801 391.336C182.801 391.905 182.671 392.428 182.409 392.904C182.148 393.371 181.747 393.749 181.205 394.038C180.664 394.327 179.992 394.472 179.189 394.472H177.705V398H175.311V388.172H179.189C179.973 388.172 180.636 388.307 181.177 388.578C181.719 388.849 182.125 389.222 182.395 389.698C182.666 390.174 182.801 390.72 182.801 391.336ZM179.007 392.568C179.465 392.568 179.805 392.461 180.029 392.246C180.253 392.031 180.365 391.728 180.365 391.336C180.365 390.944 180.253 390.641 180.029 390.426C179.805 390.211 179.465 390.104 179.007 390.104H177.705V392.568H179.007ZM190.166 396.264H186.498L185.91 398H183.404L186.96 388.172H189.732L193.288 398H190.754L190.166 396.264ZM189.55 394.416L188.332 390.818L187.128 394.416H189.55ZM199.382 398L197.338 394.29H196.764V398H194.37V388.172H198.388C199.163 388.172 199.821 388.307 200.362 388.578C200.913 388.849 201.323 389.222 201.594 389.698C201.865 390.165 202 390.687 202 391.266C202 391.919 201.813 392.503 201.44 393.016C201.076 393.529 200.535 393.893 199.816 394.108L202.084 398H199.382ZM196.764 392.596H198.248C198.687 392.596 199.013 392.489 199.228 392.274C199.452 392.059 199.564 391.756 199.564 391.364C199.564 390.991 199.452 390.697 199.228 390.482C199.013 390.267 198.687 390.16 198.248 390.16H196.764V392.596ZM205.897 390.09V392.078H209.103V393.926H205.897V396.082H209.523V398H203.503V388.172H209.523V390.09H205.897Z" fill="black"/>
<g clip-path="url(#clip2_4_2)">
<path d="M257.256 374.442L254.741 373.852L256.262 362.26L259.973 363.13L257.256 374.442Z" fill="#FFB6B6"/>
<path d="M247.327 377.431C247.217 377.853 247.428 378.273 247.798 378.369L252.759 379.657C252.759 379.657 253.757 377.821 255.967 377.493L255.375 380.336L257.935 381L258.796 376.405C258.796 376.405 260.108 374.168 259.006 372.565C257.905 370.961 259.012 371.432 259.012 371.432L259.177 368.493L255.192 367.944L254.025 372.322L251.018 376.188L247.912 376.834C247.636 376.891 247.406 377.126 247.327 377.431H247.327V377.431Z" fill="#2F2E41"/>
<path d="M281.366 371.707L279.072 372.894L272.687 363.101L276.072 361.348L281.366 371.707Z" fill="#FFB6B6"/>
<path d="M275.768 380.436C275.96 380.828 276.393 381.01 276.736 380.842L281.342 378.593C281.342 378.593 280.906 376.549 282.371 374.863L283.771 377.407L286.147 376.246L283.813 372.196C283.813 372.196 283.354 369.644 281.474 369.143C279.594 368.641 280.741 368.279 280.741 368.279L278.956 365.939L275.571 368.114L277.533 372.198L277.764 377.091L275.825 379.601C275.652 379.825 275.63 380.153 275.768 380.436L275.768 380.436V380.436Z" fill="#2F2E41"/>
<path d="M146.846 328.654H213.508C214.347 328.654 215.028 327.973 215.028 327.134V232.804C215.028 231.965 214.347 231.284 213.508 231.284H146.846C146.006 231.284 145.326 231.965 145.326 232.804V327.134C145.326 327.973 146.006 328.654 146.846 328.654Z" fill="white"/>
<path d="M215.312 328.938H145.042V231H215.312V328.938ZM145.61 328.37H214.743V231.568H145.61V328.37Z" fill="#E6E6E6"/>
<path d="M199.52 246.689C199.791 246.689 200.01 246.909 200.01 247.179V248.159C200.01 248.429 199.791 248.648 199.52 248.648H160.834C160.564 248.648 160.344 248.429 160.344 248.159V247.179C160.344 246.909 160.564 246.689 160.834 246.689H199.52Z" fill="#E6E6E6"/>
<path d="M199.52 251.341C199.791 251.341 200.01 251.561 200.01 251.831V252.811C200.01 253.081 199.791 253.3 199.52 253.3H160.834C160.564 253.3 160.344 253.081 160.344 252.811V251.831C160.344 251.561 160.564 251.341 160.834 251.341H199.52Z" fill="#E6E6E6"/>
<path d="M199.52 255.994C199.791 255.994 200.01 256.213 200.01 256.483V257.463C200.01 257.733 199.791 257.953 199.52 257.953H160.834C160.564 257.953 160.344 257.733 160.344 257.463V256.484C160.344 256.213 160.564 255.994 160.834 255.994H199.52" fill="#88F5EF"/>
<path d="M270.726 268.199H283.576C283.558 267.595 283.686 266.995 283.95 266.452C283.958 267.055 284.09 267.65 284.339 268.199H284.923C285.816 268.198 286.539 267.474 286.54 266.581V258.231C286.54 254.142 283.044 248.013 279.246 250.578C279.123 250.571 277.197 249.719 277.075 249.719C273.733 249.721 272.584 252.737 271.575 255.923C270.425 255.393 269.633 257.605 269.059 261.498C268.892 262.634 268.744 263.913 268.61 265.309C268.242 266.481 268.893 267.729 270.064 268.097C270.279 268.165 270.502 268.199 270.727 268.2L270.726 268.199V268.199Z" fill="#2F2E41"/>
<path d="M245.509 315.939C244.872 317.449 245.135 319.002 246.096 319.407C247.057 319.813 248.352 318.917 248.989 317.406C249.252 316.806 249.368 316.152 249.326 315.498L251.945 309.065L248.9 307.901L246.64 314.366C246.143 314.793 245.755 315.332 245.508 315.939L245.509 315.939V315.939Z" fill="#FFB6B6"/>
<path d="M273.666 265.372L279.808 266.657L278.866 269.483L280.75 291.1L277.61 298.06L258.453 296.49L263.164 287.068C263.164 287.068 261.28 279.217 263.792 277.647C266.305 276.076 270.387 268.225 270.387 268.225L273.666 265.372V265.372Z" fill="#88F5EF"/>
<path d="M279.391 267.907L284.833 270.11L282.948 297.745L287.031 321.612L273.841 323.811C273.841 323.811 275.412 271.052 276.353 270.11C277.295 269.168 279.391 267.906 279.391 267.906V267.907V267.907Z" fill="#2F2E41"/>
<path d="M268.734 271.354C268.734 271.354 265.194 269.113 263.281 270.772C261.368 272.431 246.64 312.525 246.64 312.525L250.613 314.251L259.723 295.149L268.734 271.354V271.354Z" fill="#2F2E41"/>
<path d="M258.591 338.908L255 366.521L260.024 366.835C260.024 366.835 262.637 359.706 265.617 351.309C266.252 349.528 266.901 347.691 267.545 345.851C268.242 343.854 268.937 341.856 269.596 339.928C271.226 335.174 272.655 330.846 273.471 328.02C273.612 327.524 273.738 327.075 273.842 326.679C276.039 318.238 277.296 296.178 277.296 296.178L259.081 294.608L258.887 294.849L255 299.708L255.182 300.735L260.024 327.896L258.592 338.909L258.591 338.908V338.908Z" fill="#2F2E41"/>
<path d="M260.023 327.895L258.591 338.909L265.032 350.248L265.616 351.309L274.484 367.426L278.865 364.942C278.865 364.942 273.166 351.843 269.595 339.928C269.199 338.619 268.832 337.322 268.502 336.059C267.532 332.363 269.121 325.618 268.499 323.758C266.398 317.484 259.552 304.932 256.374 299.245L255.181 300.734L260.023 327.895V327.895Z" fill="#2F2E41"/>
<path d="M270.466 267.988L264.107 270.426L247.463 319.102L257.512 320.672L262.223 292.408L270.466 267.988V267.988Z" fill="#2F2E41"/>
<path d="M286.369 320.53C286.53 322.161 287.503 323.4 288.541 323.297C289.579 323.194 290.289 321.788 290.127 320.156C290.071 319.504 289.86 318.874 289.511 318.319L288.738 311.417L285.507 311.848L286.612 318.607C286.378 319.22 286.295 319.879 286.369 320.53V320.53Z" fill="#FFB6B6"/>
<path d="M282.634 270.112C282.634 270.112 286.716 269.169 287.972 271.368C289.229 273.566 289.857 316.275 289.857 316.275L285.537 316.589L283.262 295.55L282.634 270.112L282.634 270.112V270.112Z" fill="#2F2E41"/>
<path d="M277.424 264.61C281.029 264.61 283.952 261.688 283.952 258.082C283.952 254.477 281.029 251.554 277.424 251.554C273.818 251.554 270.896 254.477 270.896 258.082C270.896 261.688 273.818 264.61 277.424 264.61Z" fill="#FFB6B6"/>
<path d="M280.044 268.198H283.268C283.432 268.198 283.571 268.072 283.579 267.908L283.58 267.89C283.597 267.549 284.076 267.492 284.187 267.815C284.231 267.945 284.282 268.073 284.339 268.198H284.656V258.134C284.656 256.408 283.257 255.009 281.531 255.009V255.009C280.057 255.009 278.784 256.038 278.475 257.479C278.475 257.479 276.284 260.167 277.575 261.677C278.866 263.188 276.988 264.418 276.988 264.418C276.571 266.364 278.054 268.198 280.044 268.198V268.198Z" fill="#2F2E41"/>
<path d="M173.156 279.921C173.88 279.455 174.032 278.456 173.526 277.76L171.156 274.498C170.602 273.735 169.535 273.566 168.772 274.12C168.705 274.169 168.641 274.223 168.581 274.281C164.567 276.427 162.407 279.561 164.809 283.265C164.809 283.884 164.854 284.501 164.944 285.113C164.983 285.379 165.072 285.639 165.224 285.86C165.674 286.518 166.468 286.76 167.166 286.532L171.043 285.272C171.867 285.005 172.313 284.106 172.009 283.295C171.615 282.247 171.778 280.811 173.156 279.921V279.921Z" fill="#F2F2F2"/>
<path d="M182.358 289.543C181.243 289.433 180.29 290.352 180.29 291.473V294.817C180.29 294.904 180.297 294.991 180.31 295.076C180.454 296.008 181.325 296.647 182.257 296.504C187.69 297.174 191.403 294.811 191.627 289.627C191.662 289.554 191.693 289.479 191.718 289.402C192.007 288.506 191.516 287.545 190.62 287.256L187.374 286.201C186.254 285.837 185.09 286.564 184.894 287.725C184.717 288.774 184.025 289.708 182.358 289.543V289.543Z" fill="#E6E6E6"/>
<path d="M162.289 292.813C163.416 299.501 169.284 302.038 175.404 302.439C175.523 302.457 175.645 302.466 175.766 302.466C177.086 302.467 178.156 301.398 178.157 300.078V294.485C178.157 292.921 176.875 291.703 175.311 291.687C173.799 291.672 172.813 290.956 172.408 289.643C171.946 288.142 170.297 287.351 168.803 287.836L163.699 289.495C163.037 289.709 162.502 290.201 162.233 290.842C161.964 291.476 161.985 292.195 162.289 292.813V292.813Z" fill="#3F3D56"/>
<path d="M193.737 269.689C192.795 268.767 191.283 268.782 190.36 269.724C190.278 269.808 190.202 269.898 190.133 269.993L185.598 276.236C185.018 277.034 185.349 278.146 186.256 278.536C188.379 279.449 188.156 281.498 187.465 282.753C187.126 283.367 187.405 284.137 188.073 284.353L195.716 286.837C196.973 287.243 198.322 286.553 198.728 285.295C198.769 285.169 198.799 285.039 198.818 284.907C198.95 284.032 199.016 283.148 199.015 282.264C200.308 277.442 198.519 272.897 193.737 269.689H193.737Z" fill="#88F5EF"/>
<path d="M180.611 276.928C181.458 277.405 182.527 277.174 183.098 276.388L184.617 274.297C184.912 273.891 185.015 273.377 184.898 272.889C184.784 272.411 184.467 272.006 184.029 271.782C180.454 268.551 176.222 268.353 172.633 271.765C172.182 271.993 171.853 272.407 171.735 272.898C171.618 273.382 171.719 273.893 172.012 274.296L173.788 276.74C174.398 277.58 175.579 277.799 176.42 277.191C177.641 276.307 179.415 276.255 180.611 276.928V276.928Z" fill="#E6E6E6"/>
<path d="M300.904 380.503H59V380.982H300.904V380.503Z" fill="#E6E6E6"/>
<path d="M160.592 319.057C160.729 318.48 161.37 318.29 161.893 318.312C162.224 318.334 162.553 318.386 162.874 318.467C163.211 318.542 163.544 318.632 163.876 318.726C164.484 318.899 165.086 319.109 165.704 319.245C166.223 319.387 166.769 319.395 167.292 319.268C167.794 319.13 168.19 318.742 168.338 318.242C168.488 317.764 168.272 317.248 167.826 317.02C167.413 316.792 166.895 316.942 166.668 317.355C166.664 317.361 166.661 317.367 166.658 317.373C166.467 317.882 166.617 318.456 167.032 318.806C167.245 319.006 167.478 319.183 167.728 319.335C167.982 319.508 168.264 319.634 168.562 319.708C169.068 319.842 169.603 319.633 169.884 319.192C169.94 319.086 169.974 318.97 169.983 318.85C169.998 318.688 169.745 318.689 169.73 318.85C169.687 319.316 169.143 319.533 168.735 319.482C168.46 319.436 168.198 319.335 167.964 319.183C167.739 319.051 167.525 318.901 167.325 318.732C166.98 318.433 166.656 317.941 166.888 317.475C167.069 317.175 167.458 317.079 167.758 317.259C167.798 317.283 167.835 317.312 167.869 317.344C168.232 317.641 168.167 318.179 167.928 318.531C167.64 318.899 167.197 319.111 166.73 319.102C166.238 319.103 165.749 319.026 165.281 318.875C164.696 318.709 164.118 318.524 163.532 318.367C163.198 318.279 162.863 318.199 162.524 318.136C162.203 318.066 161.873 318.043 161.546 318.069C160.993 318.095 160.515 318.462 160.347 318.989C160.31 319.149 160.555 319.216 160.592 319.057V319.057Z" fill="#3F3D56"/>
<path d="M170.631 312.448C170.708 312.448 170.77 312.668 170.77 312.938V313.918C170.77 314.188 170.708 314.407 170.631 314.407H159.697C159.621 314.407 159.559 314.188 159.559 313.918V312.938C159.559 312.668 159.621 312.448 159.697 312.448H170.631Z" fill="#E6E6E6"/>
<path d="M199.871 312.448C199.948 312.448 200.01 312.668 200.01 312.938V313.918C200.01 314.188 199.948 314.407 199.871 314.407H188.937C188.86 314.407 188.799 314.188 188.799 313.918V312.938C188.799 312.668 188.86 312.448 188.937 312.448H199.871Z" fill="#E6E6E6"/>
<path d="M195.003 317.966L192.832 318.683L191.747 319.042C191.414 319.184 191.053 319.25 190.691 319.236C190.423 319.218 190.189 319.052 190.083 318.805C190.037 318.558 190.143 318.308 190.353 318.169C190.87 317.775 191.525 318.176 191.893 318.584C192.341 319.083 192.596 319.727 193.016 320.25C193.391 320.719 193.866 321.098 194.407 321.358C195.487 321.894 196.776 321.784 197.75 321.073C198.894 320.19 199.011 318.66 199.017 317.326C199.012 317.198 198.905 317.097 198.776 317.102C198.655 317.106 198.557 317.204 198.552 317.326C198.547 318.535 198.478 320.018 197.375 320.775C196.319 321.5 194.931 321.308 193.958 320.535C193.456 320.089 193.039 319.556 192.727 318.962C192.379 318.393 191.948 317.845 191.294 317.624C190.716 317.414 190.07 317.64 189.749 318.164C189.472 318.63 189.625 319.233 190.092 319.51C190.128 319.531 190.165 319.55 190.204 319.567C190.962 319.928 191.829 319.505 192.559 319.264L195.127 318.415C195.409 318.322 195.288 317.873 195.004 317.967L195.003 317.966V317.966Z" fill="#88F5EF"/>
<path d="M98.5522 371.986C98.5239 371.962 98.5021 371.949 98.4873 371.949C98.1332 371.952 97.8177 372.138 97.6438 372.445L93.8311 379.526C93.7439 379.68 93.7011 379.849 93.7025 380.017C93.704 380.185 93.7497 380.353 93.8396 380.506C94.0193 380.811 102.44 380.92 102.44 380.92C102.794 380.917 103.766 376.561 98.5522 371.986H98.5522Z" fill="#E6E6E6"/>
<path d="M83.9796 379.205L86.8735 379.179L88.1527 368.005L83.8815 368.042L83.9796 379.205Z" fill="#FFB6B6"/>
<path d="M93.894 379.053C93.9855 379.204 94.0373 379.693 94.0388 379.869C94.0436 380.412 93.6077 380.855 93.0652 380.86L84.1029 380.938C83.7329 380.942 83.4303 380.644 83.427 380.274L83.4238 379.901C83.4238 379.901 82.9706 378.783 83.8713 377.393C83.8713 377.393 85.0153 378.466 86.6957 376.756L87.1876 375.846L90.8293 378.461L92.8372 378.69C93.2765 378.74 93.665 378.674 93.894 379.053H93.894V379.053Z" fill="#2F2E41"/>
<path d="M94.9893 369.557L97.739 370.46L102.53 360.284L98.4715 358.951L94.9893 369.557Z" fill="#FFB6B6"/>
<path d="M104.43 372.588C104.469 372.761 104.361 373.241 104.306 373.408C104.137 373.924 103.582 374.205 103.066 374.035L94.5509 371.239C94.1993 371.124 94.0079 370.745 94.1234 370.393L94.2398 370.039C94.2398 370.039 94.1684 368.835 95.4669 367.806C95.4669 367.806 96.2071 369.189 98.3467 368.107L99.1042 367.403L101.717 371.046L103.545 371.906C103.945 372.095 104.334 372.157 104.43 372.588L104.43 372.588V372.588Z" fill="#2F2E41"/>
<path d="M98.8718 304.764L104.654 323.303L111.432 339.964L101.158 363.939L95.441 361.712L100.557 340.962L91.8113 325.469L87.6781 371.978L82.6499 371.376L76.1122 315.664L77.1376 303.549L98.8718 304.764Z" fill="#2F2E41"/>
<path d="M92.9561 262.553L86.709 261.045L84.9856 265.138C84.9856 265.138 76.5437 266.564 76.1122 273.027C76.1122 273.027 74.4298 281.51 75.5068 283.88C76.5838 286.25 79.2389 294.63 79.2389 294.63C79.2389 294.63 75.0349 305.07 76.1122 305.715C77.1895 306.36 100.273 308.713 100.273 307.421C100.273 306.128 100.537 290.772 100.537 290.772L99.6328 267.507L93.818 265.353L92.9561 262.553V262.553V262.553Z" fill="#E6E6E6"/>
<path d="M91.8989 261.512C95.3757 261.512 98.1942 258.693 98.1942 255.217C98.1942 251.74 95.3757 248.921 91.8989 248.921C88.422 248.921 85.6035 251.74 85.6035 255.217C85.6035 258.693 88.422 261.512 91.8989 261.512Z" fill="#FFB6B6"/>
<path d="M87.7303 256.152C88.2328 256.427 87.7566 257.74 88.0706 257.854C88.4336 257.985 89.7562 256.478 89.772 254.791C89.7768 254.281 89.6592 254.035 89.772 253.43C89.9196 252.638 90.3729 251.704 90.7929 251.729C91.0419 251.743 91.2851 252.095 91.3033 252.409C91.3289 252.849 90.9014 253.023 90.9631 253.26C91.0805 253.712 92.8762 254.023 93.5152 253.26C94.0162 252.662 93.6315 251.612 93.8555 251.558C94.0206 251.519 94.1982 252.097 94.8764 252.749C95.1319 252.995 95.5119 253.361 95.7271 253.26C96.038 253.114 95.8117 252.083 95.8972 252.069C95.968 252.058 96.0127 252.782 96.4077 253.43C96.9151 254.262 97.9614 254.904 98.4494 254.621C98.7484 254.448 98.7719 253.966 98.7897 253.6C98.8272 252.829 99.9469 251.056 99.6568 250.231C99.0663 248.553 98.056 249.736 97.5987 249.176C96.9796 248.418 96.4245 248.826 95.3868 247.985C94.3731 247.164 94.364 246.338 93.6854 246.284C93.0742 246.235 92.8571 246.887 92.1541 246.794C91.5585 246.716 91.4287 246.21 90.9631 246.284C90.5367 246.352 90.5087 246.797 89.9422 246.965C89.5805 247.072 89.501 246.917 89.0915 246.965C88.2394 247.064 87.6673 247.84 87.5602 247.985C87.1471 248.546 87.3075 248.782 86.8796 249.347C86.5106 249.833 85.6924 249.627 85.3849 249.87C84.3801 250.664 83.9487 252.129 83.9406 253.797C83.9349 254.965 84.0873 255.554 84.4274 257.027C84.6856 258.146 85.8806 259.591 86.5393 260.236C86.7161 260.409 87.2118 260.894 87.5602 260.746C87.8903 260.606 87.9 259.978 87.9004 259.896C87.9018 259.61 87.8258 259.257 87.2199 258.364C86.5834 257.426 86.3307 257.319 86.3692 257.003C86.4371 256.445 87.3298 255.933 87.7303 256.152L87.7303 256.152Z" fill="#2F2E41"/>
<path d="M69.9278 318.945C69.7086 320.776 70.4752 322.373 71.6401 322.512C72.805 322.652 73.9271 321.281 74.1463 319.45C74.2423 318.649 74.1493 317.892 73.9168 317.283L74.7484 309.515L71.0946 309.202L70.6626 316.893C70.2928 317.43 70.0238 318.144 69.9278 318.945V318.945Z" fill="#FFB6B6"/>
<path d="M80.4486 267.356C80.4486 267.356 78.5556 267.382 77.3013 269.829C76.6348 271.13 72.3026 294.441 72.3026 294.441L71.0855 301.813L71.711 303.033C70.7166 304.554 70.4429 306.435 70.9627 308.176L69.7736 315.38L75.3652 315.41L79.7289 296.54L83.398 285.596L80.4486 267.356V267.356Z" fill="#E6E6E6"/>
<path d="M109.016 318.661C109.235 320.491 108.468 322.088 107.304 322.228C106.139 322.367 105.017 320.997 104.797 319.166C104.701 318.365 104.794 317.608 105.027 316.999L104.195 309.231L107.849 308.918L108.281 316.609C108.651 317.146 108.92 317.859 109.016 318.661V318.661Z" fill="#FFB6B6"/>
<path d="M98.4951 267.071C98.4951 267.071 100.388 267.098 101.642 269.545C102.309 270.846 106.641 294.157 106.641 294.157L107.858 301.529L107.233 302.749C108.227 304.269 108.501 306.151 107.981 307.892L109.17 315.095L103.578 315.125L99.2148 296.256L95.5457 285.312L98.4951 267.071V267.071Z" fill="#E6E6E6"/>
<path d="M269.577 257.113C269.809 257.493 271.041 256.102 272.933 255.949C273.415 255.909 274.501 257.753 275.746 257.78C276.572 257.797 277.08 257.79 278.097 257.78C279.298 257.767 279.627 257.74 279.859 257.446C280.309 256.876 279.939 255.863 280.153 255.779C280.332 255.709 280.796 256.336 281.034 257.113C281.534 258.744 279.742 261.014 279.565 263.115C279.377 265.379 281.228 261.041 281.034 263.115C280.817 265.449 280.038 265.273 280.047 266.116C280.05 266.243 280.083 266.353 280.153 266.45C280.215 266.536 280.276 266.57 281.328 266.783C282.585 267.04 283.217 267.167 283.385 267.117C283.816 266.99 284.254 266.286 284.56 265.783C285.065 264.959 284.707 265.789 284.56 264.782C284.419 263.809 283.978 263.682 283.972 262.782C283.966 261.648 284.662 261.305 285.147 260.114C286.043 257.913 285.168 255.366 284.853 254.445C284.702 254.004 284.429 253.445 283.949 252.522C283.563 251.782 283.052 251.129 282.428 250.64C281.494 249.907 280.408 249.405 279.234 249.206C278.592 249.097 277.936 249.154 277.304 249.326L275.667 249.773C274.978 249.96 274.33 250.301 273.758 250.774C273.224 250.776 272.762 251.167 272.579 251.735C272.56 251.795 272.543 251.83 272.528 251.824C269.577 250.777 269.579 253.879 269.611 255.816C269.615 256.015 269.609 256.19 269.586 256.333V256.343C269.527 256.726 269.513 257.006 269.577 257.113V257.113Z" fill="#2F2E41"/>
<path d="M231.213 274.242H200.142V274.81H231.213V274.242Z" fill="#3F3D56"/>
<path d="M237.466 278.213C235.272 278.213 233.487 276.428 233.487 274.234C233.487 272.039 235.272 270.254 237.466 270.254C239.66 270.254 241.445 272.039 241.445 274.234C241.445 276.428 239.66 278.213 237.466 278.213ZM237.466 270.823C235.585 270.823 234.055 272.353 234.055 274.234C234.055 276.114 235.585 277.645 237.466 277.645C239.347 277.645 240.877 276.114 240.877 274.234C240.877 272.353 239.347 270.823 237.466 270.823Z" fill="#3F3D56"/>
<path d="M237.466 276.223C238.565 276.223 239.456 275.332 239.456 274.234C239.456 273.135 238.565 272.244 237.466 272.244C236.367 272.244 235.476 273.135 235.476 274.234C235.476 275.332 236.367 276.223 237.466 276.223Z" fill="#88F5EF"/>
<path d="M160.238 295.276H129.168V295.845H160.238V295.276Z" fill="#3F3D56"/>
<path d="M118.935 295.268C118.935 293.074 120.72 291.288 122.915 291.288C125.109 291.288 126.894 293.074 126.894 295.268C126.894 297.462 125.109 299.247 122.915 299.247C120.72 299.247 118.935 297.462 118.935 295.268ZM119.504 295.268C119.504 297.149 121.034 298.679 122.915 298.679C124.795 298.679 126.325 297.149 126.325 295.268C126.325 293.387 124.795 291.857 122.915 291.857C121.034 291.857 119.504 293.387 119.504 295.268Z" fill="#3F3D56"/>
<path d="M122.915 297.258C124.013 297.258 124.904 296.367 124.904 295.268C124.904 294.169 124.013 293.278 122.915 293.278C121.816 293.278 120.925 294.169 120.925 295.268C120.925 296.367 121.816 297.258 122.915 297.258Z" fill="#88F5EF"/>
</g>
<rect x="59.5" y="231.5" width="240.904" height="149" stroke="black"/>
<path d="M148.424 227.098C147.705 227.098 147.061 226.981 146.492 226.748C145.923 226.515 145.465 226.169 145.12 225.712C144.784 225.255 144.607 224.704 144.588 224.06H147.136C147.173 224.424 147.299 224.704 147.514 224.9C147.729 225.087 148.009 225.18 148.354 225.18C148.709 225.18 148.989 225.101 149.194 224.942C149.399 224.774 149.502 224.545 149.502 224.256C149.502 224.013 149.418 223.813 149.25 223.654C149.091 223.495 148.891 223.365 148.648 223.262C148.415 223.159 148.079 223.043 147.64 222.912C147.005 222.716 146.487 222.52 146.086 222.324C145.685 222.128 145.339 221.839 145.05 221.456C144.761 221.073 144.616 220.574 144.616 219.958C144.616 219.043 144.947 218.329 145.61 217.816C146.273 217.293 147.136 217.032 148.2 217.032C149.283 217.032 150.155 217.293 150.818 217.816C151.481 218.329 151.835 219.048 151.882 219.972H149.292C149.273 219.655 149.157 219.407 148.942 219.23C148.727 219.043 148.452 218.95 148.116 218.95C147.827 218.95 147.593 219.029 147.416 219.188C147.239 219.337 147.15 219.557 147.15 219.846C147.15 220.163 147.299 220.411 147.598 220.588C147.897 220.765 148.363 220.957 148.998 221.162C149.633 221.377 150.146 221.582 150.538 221.778C150.939 221.974 151.285 222.259 151.574 222.632C151.863 223.005 152.008 223.486 152.008 224.074C152.008 224.634 151.863 225.143 151.574 225.6C151.294 226.057 150.883 226.421 150.342 226.692C149.801 226.963 149.161 227.098 148.424 227.098ZM153.075 222.072C153.075 221.101 153.285 220.238 153.705 219.482C154.125 218.717 154.709 218.124 155.455 217.704C156.211 217.275 157.065 217.06 158.017 217.06C159.184 217.06 160.183 217.368 161.013 217.984C161.844 218.6 162.399 219.44 162.679 220.504H160.047C159.851 220.093 159.571 219.781 159.207 219.566C158.853 219.351 158.447 219.244 157.989 219.244C157.252 219.244 156.655 219.501 156.197 220.014C155.74 220.527 155.511 221.213 155.511 222.072C155.511 222.931 155.74 223.617 156.197 224.13C156.655 224.643 157.252 224.9 157.989 224.9C158.447 224.9 158.853 224.793 159.207 224.578C159.571 224.363 159.851 224.051 160.047 223.64H162.679C162.399 224.704 161.844 225.544 161.013 226.16C160.183 226.767 159.184 227.07 158.017 227.07C157.065 227.07 156.211 226.86 155.455 226.44C154.709 226.011 154.125 225.418 153.705 224.662C153.285 223.906 153.075 223.043 153.075 222.072ZM172.657 217.172V227H170.263V222.954H166.539V227H164.145V217.172H166.539V221.022H170.263V217.172H172.657ZM176.78 219.09V221.078H179.986V222.926H176.78V225.082H180.406V227H174.386V217.172H180.406V219.09H176.78ZM185.642 217.172C186.678 217.172 187.583 217.377 188.358 217.788C189.132 218.199 189.73 218.777 190.15 219.524C190.579 220.261 190.794 221.115 190.794 222.086C190.794 223.047 190.579 223.901 190.15 224.648C189.73 225.395 189.128 225.973 188.344 226.384C187.569 226.795 186.668 227 185.642 227H181.96V217.172H185.642ZM185.488 224.928C186.393 224.928 187.098 224.681 187.602 224.186C188.106 223.691 188.358 222.991 188.358 222.086C188.358 221.181 188.106 220.476 187.602 219.972C187.098 219.468 186.393 219.216 185.488 219.216H184.354V224.928H185.488ZM194.484 217.172V223.052C194.484 223.64 194.628 224.093 194.918 224.41C195.207 224.727 195.632 224.886 196.192 224.886C196.752 224.886 197.181 224.727 197.48 224.41C197.778 224.093 197.928 223.64 197.928 223.052V217.172H200.322V223.038C200.322 223.915 200.135 224.657 199.762 225.264C199.388 225.871 198.884 226.328 198.25 226.636C197.624 226.944 196.924 227.098 196.15 227.098C195.375 227.098 194.68 226.949 194.064 226.65C193.457 226.342 192.976 225.885 192.622 225.278C192.267 224.662 192.09 223.915 192.09 223.038V217.172H194.484ZM204.397 225.152H207.533V227H202.003V217.172H204.397V225.152ZM211.069 219.09V221.078H214.275V222.926H211.069V225.082H214.695V227H208.675V217.172H214.695V219.09H211.069Z" fill="black" fill-opacity="0.85"/>
<g clip-path="url(#clip3_4_2)">
<path d="M254.134 169.168C253.912 168.923 253.746 168.631 253.649 168.315C253.552 167.999 253.525 167.665 253.57 167.337C253.616 167.009 253.733 166.695 253.913 166.417C254.093 166.139 254.332 165.904 254.612 165.728L252.817 157.883L256.734 159.348L257.839 166.574C258.102 167.065 258.177 167.636 258.048 168.178C257.919 168.72 257.595 169.197 257.139 169.516C256.682 169.836 256.124 169.977 255.57 169.913C255.017 169.849 254.506 169.584 254.134 169.168V169.168Z" fill="#FFB8B8"/>
<path d="M253.863 162.941L250.42 156.284L250.885 139.52L251.107 139.986C251.364 140.529 257.406 153.32 256.976 157.602L257.666 161.515L253.863 162.941Z" fill="#3F3D56"/>
<path d="M251.618 212.143H254.379L255.693 201.492L251.617 201.492L251.618 212.143Z" fill="#FFB8B8"/>
<path d="M250.914 211.241L256.351 211.241H256.352C257.271 211.241 258.152 211.606 258.802 212.256C259.452 212.906 259.817 213.787 259.817 214.706V214.819L250.914 214.819L250.914 211.241Z" fill="#2F2E41"/>
<path d="M224.336 210.044L226.996 210.784L231.115 200.875L227.189 199.783L224.336 210.044Z" fill="#FFB8B8"/>
<path d="M223.899 208.987L229.138 210.444L229.138 210.444C230.023 210.69 230.775 211.278 231.227 212.078C231.679 212.878 231.794 213.825 231.548 214.711L231.518 214.819L222.94 212.434L223.899 208.987Z" fill="#2F2E41"/>
<path d="M248.865 207.991L243.292 168.091L231.256 207.765L221.793 204.533L235.357 151.409L235.446 151.402L249.655 150.414L259.921 204.766L248.865 207.991Z" fill="#2F2E41"/>
<path d="M247.391 132.607C247.391 132.607 242.211 129.904 235.229 131.03C235.229 131.03 231.513 139.996 235.229 143.565L236.243 152.539C236.243 152.539 245.702 158.17 248.855 151.638L248.405 144.206C248.405 144.206 250.657 140.641 248.855 138.032C247.775 136.438 247.26 134.528 247.391 132.607V132.607Z" fill="#88F5EF"/>
<path d="M248.047 173.427L248.957 154.56L246.383 132.117L246.502 132.099C249.877 131.59 250.96 137.405 251.004 137.653L256.879 170.87L248.047 173.427Z" fill="#3F3D56"/>
<path d="M236.593 173.623L226.206 172.469L226.209 172.356C226.246 170.818 227.14 134.665 229.645 132.105C232.165 129.529 236.92 130.644 237.121 130.693L237.221 130.717L236.366 146.015L236.593 173.623Z" fill="#3F3D56"/>
<path d="M238.506 152.016C238.191 152.119 237.858 152.152 237.529 152.113C237.2 152.073 236.884 151.962 236.603 151.787C236.322 151.612 236.083 151.378 235.902 151.1C235.721 150.823 235.604 150.509 235.557 150.181L227.659 148.634L230.59 145.65L237.641 147.577C238.197 147.536 238.749 147.7 239.192 148.038C239.635 148.376 239.938 148.865 240.045 149.412C240.152 149.959 240.054 150.527 239.77 151.006C239.486 151.486 239.037 151.845 238.506 152.016V152.016Z" fill="#FFB8B8"/>
<path d="M234.291 150.205L231.718 149.651C227.918 150.794 221.287 146.772 218.607 144.985C218.102 144.649 217.939 143.983 218.12 143.005C218.389 141.638 219.142 140.414 220.242 139.56L229.681 132.075L232.064 131.676L232.772 135.687L226.757 142.147L235.611 146.965L234.291 150.205Z" fill="#3F3D56"/>
<path d="M233.273 127.635V122.435C233.273 120.235 234.147 118.125 235.703 116.569C237.259 115.013 239.369 114.139 241.569 114.139C243.769 114.139 245.879 115.013 247.435 116.569C248.991 118.125 249.865 120.235 249.865 122.435V127.635C249.864 127.931 249.747 128.214 249.538 128.423C249.329 128.632 249.046 128.749 248.75 128.75H234.388C234.092 128.749 233.809 128.632 233.6 128.423C233.391 128.214 233.274 127.931 233.273 127.635V127.635Z" fill="#2F2E41"/>
<path d="M241.236 128.699C244.595 128.699 247.318 125.975 247.318 122.616C247.318 119.257 244.595 116.534 241.236 116.534C237.876 116.534 235.153 119.257 235.153 122.616C235.153 125.975 237.876 128.699 241.236 128.699Z" fill="#FFB8B8"/>
<path d="M234.987 122.593C234.928 122.526 234.885 122.447 234.86 122.362C234.835 122.277 234.829 122.187 234.842 122.099L235.562 117.083C235.576 116.98 235.616 116.884 235.677 116.801C235.738 116.718 235.819 116.651 235.912 116.607C239.59 114.886 243.319 114.884 246.996 116.601C247.094 116.647 247.178 116.718 247.24 116.806C247.302 116.895 247.34 116.998 247.35 117.105L247.831 122.128C247.839 122.214 247.83 122.301 247.802 122.383C247.775 122.465 247.731 122.54 247.673 122.604C247.615 122.668 247.544 122.719 247.465 122.754C247.386 122.789 247.301 122.807 247.215 122.807H245.995C245.877 122.806 245.762 122.773 245.663 122.709C245.563 122.646 245.484 122.556 245.434 122.449L244.908 121.321C244.874 121.248 244.817 121.188 244.746 121.151C244.674 121.113 244.593 121.099 244.513 121.112C244.434 121.124 244.36 121.162 244.304 121.22C244.248 121.278 244.213 121.353 244.203 121.432L244.099 122.264C244.08 122.414 244.007 122.551 243.894 122.651C243.781 122.751 243.635 122.806 243.484 122.807H235.454C235.366 122.807 235.278 122.788 235.197 122.751C235.117 122.714 235.045 122.66 234.987 122.593Z" fill="#2F2E41"/>
<path d="M209.445 74.9959H73V159.962H209.445V74.9959Z" fill="#E6E6E6"/>
<path d="M107.14 91.3643H82.1497V107.608H107.14V91.3643Z" fill="white"/>
<path d="M138.191 91.3643H113.202V107.608H138.191V91.3643Z" fill="white"/>
<path d="M169.243 91.3643H144.253V107.608H169.243V91.3643Z" fill="white"/>
<path d="M200.295 91.3643H175.305V107.608H200.295V91.3643Z" fill="white"/>
<path d="M107.14 114.355H82.1497V130.598H107.14V114.355Z" fill="white"/>
<path d="M138.191 114.355H113.202V130.598H138.191V114.355Z" fill="white"/>
<path d="M169.243 114.355H144.253V130.598H169.243V114.355Z" fill="white"/>
<path d="M200.295 114.355H175.305V130.598H200.295V114.355Z" fill="white"/>
<path d="M107.14 137.346H82.1497V153.589H107.14V137.346Z" fill="white"/>
<path d="M138.191 137.346H113.202V153.589H138.191V137.346Z" fill="white"/>
<path d="M169.243 137.346H144.253V153.589H169.243V137.346Z" fill="white"/>
<path d="M200.295 137.346H175.305V153.589H200.295V137.346Z" fill="white"/>
<path d="M108.736 84.9919C110.806 84.9919 112.484 83.3136 112.484 81.2434C112.484 79.1732 110.806 77.4949 108.736 77.4949C106.665 77.4949 104.987 79.1732 104.987 81.2434C104.987 83.3136 106.665 84.9919 108.736 84.9919Z" fill="white"/>
<path d="M170.71 84.9919C172.781 84.9919 174.459 83.3136 174.459 81.2434C174.459 79.1732 172.781 77.4949 170.71 77.4949C168.64 77.4949 166.962 79.1732 166.962 81.2434C166.962 83.3136 168.64 84.9919 170.71 84.9919Z" fill="white"/>
<path d="M110.235 65H107.236V82.243H110.235V65Z" fill="#E6E6E6"/>
<path d="M172.21 65H169.211V82.243H172.21V65Z" fill="#E6E6E6"/>
<path d="M193.451 99.486C193.45 100.843 192.959 102.154 192.068 103.178C191.178 104.202 189.948 104.871 188.604 105.06C187.26 105.25 185.893 104.949 184.754 104.211C183.615 103.474 182.78 102.35 182.403 101.047C182.026 99.7432 182.132 98.3472 182.701 97.1155C183.271 95.8837 184.266 94.8989 185.503 94.3419C186.741 93.7849 188.138 93.6933 189.437 94.0837C190.737 94.4742 191.852 95.3205 192.578 96.4673C193.149 97.3704 193.452 98.4173 193.451 99.486V99.486Z" fill="#88F5EF"/>
<path d="M192.578 96.4673L187.015 102.029C186.665 101.488 184.718 98.9723 184.718 98.9723C184.967 98.72 185.234 98.4848 185.515 98.2685L187.13 100.422L191.926 95.6258C192.17 95.8851 192.388 96.1668 192.578 96.4673V96.4673Z" fill="white"/>
<path d="M131.348 122.477C131.346 123.834 130.855 125.145 129.965 126.169C129.074 127.193 127.844 127.861 126.501 128.051C125.157 128.241 123.79 127.94 122.65 127.202C121.511 126.465 120.676 125.341 120.299 124.037C119.922 122.734 120.028 121.338 120.597 120.106C121.167 118.874 122.162 117.89 123.4 117.333C124.637 116.776 126.034 116.684 127.334 117.074C128.633 117.465 129.749 118.311 130.474 119.458C131.046 120.361 131.349 121.408 131.348 122.477V122.477Z" fill="#88F5EF"/>
<path d="M130.474 119.458L124.911 125.02C124.562 124.478 122.614 121.963 122.614 121.963C122.864 121.711 123.13 121.476 123.411 121.259L125.027 123.413L129.823 118.616C130.066 118.876 130.284 119.158 130.474 119.458V119.458Z" fill="white"/>
<path d="M100.296 122.477C100.294 123.834 99.8035 125.145 98.913 126.169C98.0226 127.193 96.7925 127.861 95.4487 128.051C94.105 128.241 92.7379 127.94 91.5986 127.202C90.4593 126.465 89.6244 125.341 89.2472 124.037C88.8701 122.734 88.976 121.338 89.5456 120.106C90.1152 118.874 91.1102 117.89 92.3477 117.333C93.5852 116.776 94.9822 116.684 96.2819 117.074C97.5816 117.465 98.6967 118.311 99.4224 119.458C99.9939 120.361 100.297 121.408 100.296 122.477V122.477Z" fill="#88F5EF"/>
<path d="M99.4224 119.458L93.8597 125.02C93.51 124.478 91.5622 121.963 91.5622 121.963C91.8118 121.711 92.0782 121.476 92.3595 121.259L93.9747 123.413L98.771 118.616C99.0142 118.876 99.2323 119.158 99.4224 119.458V119.458Z" fill="white"/>
<path d="M287.283 215H192.935C192.87 215 192.807 214.974 192.76 214.927C192.714 214.881 192.688 214.818 192.688 214.752C192.688 214.687 192.714 214.624 192.76 214.577C192.807 214.531 192.87 214.505 192.935 214.505H287.283C287.348 214.505 287.411 214.531 287.458 214.577C287.504 214.624 287.53 214.687 287.53 214.752C287.53 214.818 287.504 214.881 287.458 214.927C287.411 214.974 287.348 215 287.283 215Z" fill="#3F3D56"/>
</g>
</g>
<defs>
<clipPath id="clip0_4_2">
<rect width="360" height="800" fill="white"/>
</clipPath>
<clipPath id="clip1_4_2">
<rect width="188.341" height="150" fill="white" transform="translate(86 408)"/>
</clipPath>
<clipPath id="clip2_4_2">
<rect x="59" y="231" width="241.904" height="150" fill="white"/>
</clipPath>
<clipPath id="clip3_4_2">
<rect width="214.53" height="150" fill="white" transform="translate(73 65)"/>
</clipPath>
</defs>
</svg>
